<?xml version="1.0" encoding="utf-8" standalone="no"?>
<!DOCTYPE svg PUBLIC "-//W3C//DTD SVG 1.1//EN"
  "http://www.w3.org/Graphics/SVG/1.1/DTD/svg11.dtd">
<svg xmlns:xlink="http://www.w3.org/1999/xlink" width="558.732031pt" height="562.074531pt" viewBox="0 0 558.732031 562.074531" xmlns="http://www.w3.org/2000/svg" version="1.1">
 <metadata>
  <rdf:RDF xmlns:dc="http://purl.org/dc/elements/1.1/" xmlns:cc="http://creativecommons.org/ns#" xmlns:rdf="http://www.w3.org/1999/02/22-rdf-syntax-ns#">
   <cc:Work>
    <dc:type rdf:resource="http://purl.org/dc/dcmitype/StillImage"/>
    <dc:date>2026-01-16T14:09:12.628008</dc:date>
    <dc:format>image/svg+xml</dc:format>
    <dc:creator>
     <cc:Agent>
      <dc:title>Matplotlib v3.10.0, https://matplotlib.org/</dc:title>
     </cc:Agent>
    </dc:creator>
   </cc:Work>
  </rdf:RDF>
 </metadata>
 <defs>
  <style type="text/css">*{stroke-linejoin: round; stroke-linecap: butt}</style>
 </defs>
 <g id="figure_1">
  <g id="patch_1">
   <path d="M 0 562.074531 
L 558.732031 562.074531 
L 558.732031 0 
L 0 0 
z
" style="fill: #ffffff"/>
  </g>
  <g id="axes_1">
   <g id="patch_2">
    <path d="M 105.132031 103.358697 
L 551.532031 103.358697 
L 551.532031 25.558281 
L 105.132031 25.558281 
z
" style="fill: #ffffff"/>
   </g>
   <g id="matplotlib.axis_1">
    <g id="xtick_1">
     <g id="line2d_1">
      <defs>
       <path id="mcd73079cb1" d="M 0 0 
L 0 3.5 
" style="stroke: #000000; stroke-width: 0.8"/>
      </defs>
      <g>
       <use xlink:href="#mcd73079cb1" x="125.42294" y="103.358697" style="stroke: #000000; stroke-width: 0.8"/>
      </g>
     </g>
    </g>
    <g id="xtick_2">
     <g id="line2d_2">
      <g>
       <use xlink:href="#mcd73079cb1" x="220.511319" y="103.358697" style="stroke: #000000; stroke-width: 0.8"/>
      </g>
     </g>
    </g>
    <g id="xtick_3">
     <g id="line2d_3">
      <g>
       <use xlink:href="#mcd73079cb1" x="315.599697" y="103.358697" style="stroke: #000000; stroke-width: 0.8"/>
      </g>
     </g>
    </g>
    <g id="xtick_4">
     <g id="line2d_4">
      <g>
       <use xlink:href="#mcd73079cb1" x="410.688076" y="103.358697" style="stroke: #000000; stroke-width: 0.8"/>
      </g>
     </g>
    </g>
    <g id="xtick_5">
     <g id="line2d_5">
      <g>
       <use xlink:href="#mcd73079cb1" x="505.776454" y="103.358697" style="stroke: #000000; stroke-width: 0.8"/>
      </g>
     </g>
    </g>
   </g>
   <g id="matplotlib.axis_2">
    <g id="ytick_1">
     <g id="line2d_6">
      <defs>
       <path id="md7a5303dee" d="M 0 0 
L -3.5 0 
" style="stroke: #000000; stroke-width: 0.8"/>
      </defs>
      <g>
       <use xlink:href="#md7a5303dee" x="105.132031" y="70.212826" style="stroke: #000000; stroke-width: 0.8"/>
      </g>
     </g>
     <g id="text_1">
      <!-- 0 -->
      <g transform="translate(91.769531 74.012045) scale(0.1 -0.1)">
       <defs>
        <path id="DejaVuSans-30" d="M 2034 4250 
Q 1547 4250 1301 3770 
Q 1056 3291 1056 2328 
Q 1056 1369 1301 889 
Q 1547 409 2034 409 
Q 2525 409 2770 889 
Q 3016 1369 3016 2328 
Q 3016 3291 2770 3770 
Q 2525 4250 2034 4250 
z
M 2034 4750 
Q 2819 4750 3233 4129 
Q 3647 3509 3647 2328 
Q 3647 1150 3233 529 
Q 2819 -91 2034 -91 
Q 1250 -91 836 529 
Q 422 1150 422 2328 
Q 422 3509 836 4129 
Q 1250 4750 2034 4750 
z
" transform="scale(0.015625)"/>
       </defs>
       <use xlink:href="#DejaVuSans-30"/>
      </g>
     </g>
    </g>
    <g id="ytick_2">
     <g id="line2d_7">
      <g>
       <use xlink:href="#md7a5303dee" x="105.132031" y="25.767885" style="stroke: #000000; stroke-width: 0.8"/>
      </g>
     </g>
     <g id="text_2">
      <!-- 1 -->
      <g transform="translate(91.769531 29.567104) scale(0.1 -0.1)">
       <defs>
        <path id="DejaVuSans-31" d="M 794 531 
L 1825 531 
L 1825 4091 
L 703 3866 
L 703 4441 
L 1819 4666 
L 2450 4666 
L 2450 531 
L 3481 531 
L 3481 0 
L 794 0 
L 794 531 
z
" transform="scale(0.015625)"/>
       </defs>
       <use xlink:href="#DejaVuSans-31"/>
      </g>
     </g>
    </g>
    <g id="text_3">
     <!-- Respiration signal -->
     <g transform="translate(7.2 62.378802) scale(0.1 -0.1)">
      <defs>
       <path id="DejaVuSans-52" d="M 2841 2188 
Q 3044 2119 3236 1894 
Q 3428 1669 3622 1275 
L 4263 0 
L 3584 0 
L 2988 1197 
Q 2756 1666 2539 1819 
Q 2322 1972 1947 1972 
L 1259 1972 
L 1259 0 
L 628 0 
L 628 4666 
L 2053 4666 
Q 2853 4666 3247 4331 
Q 3641 3997 3641 3322 
Q 3641 2881 3436 2590 
Q 3231 2300 2841 2188 
z
M 1259 4147 
L 1259 2491 
L 2053 2491 
Q 2509 2491 2742 2702 
Q 2975 2913 2975 3322 
Q 2975 3731 2742 3939 
Q 2509 4147 2053 4147 
L 1259 4147 
z
" transform="scale(0.015625)"/>
       <path id="DejaVuSans-65" d="M 3597 1894 
L 3597 1613 
L 953 1613 
Q 991 1019 1311 708 
Q 1631 397 2203 397 
Q 2534 397 2845 478 
Q 3156 559 3463 722 
L 3463 178 
Q 3153 47 2828 -22 
Q 2503 -91 2169 -91 
Q 1331 -91 842 396 
Q 353 884 353 1716 
Q 353 2575 817 3079 
Q 1281 3584 2069 3584 
Q 2775 3584 3186 3129 
Q 3597 2675 3597 1894 
z
M 3022 2063 
Q 3016 2534 2758 2815 
Q 2500 3097 2075 3097 
Q 1594 3097 1305 2825 
Q 1016 2553 972 2059 
L 3022 2063 
z
" transform="scale(0.015625)"/>
       <path id="DejaVuSans-73" d="M 2834 3397 
L 2834 2853 
Q 2591 2978 2328 3040 
Q 2066 3103 1784 3103 
Q 1356 3103 1142 2972 
Q 928 2841 928 2578 
Q 928 2378 1081 2264 
Q 1234 2150 1697 2047 
L 1894 2003 
Q 2506 1872 2764 1633 
Q 3022 1394 3022 966 
Q 3022 478 2636 193 
Q 2250 -91 1575 -91 
Q 1294 -91 989 -36 
Q 684 19 347 128 
L 347 722 
Q 666 556 975 473 
Q 1284 391 1588 391 
Q 1994 391 2212 530 
Q 2431 669 2431 922 
Q 2431 1156 2273 1281 
Q 2116 1406 1581 1522 
L 1381 1569 
Q 847 1681 609 1914 
Q 372 2147 372 2553 
Q 372 3047 722 3315 
Q 1072 3584 1716 3584 
Q 2034 3584 2315 3537 
Q 2597 3491 2834 3397 
z
" transform="scale(0.015625)"/>
       <path id="DejaVuSans-70" d="M 1159 525 
L 1159 -1331 
L 581 -1331 
L 581 3500 
L 1159 3500 
L 1159 2969 
Q 1341 3281 1617 3432 
Q 1894 3584 2278 3584 
Q 2916 3584 3314 3078 
Q 3713 2572 3713 1747 
Q 3713 922 3314 415 
Q 2916 -91 2278 -91 
Q 1894 -91 1617 61 
Q 1341 213 1159 525 
z
M 3116 1747 
Q 3116 2381 2855 2742 
Q 2594 3103 2138 3103 
Q 1681 3103 1420 2742 
Q 1159 2381 1159 1747 
Q 1159 1113 1420 752 
Q 1681 391 2138 391 
Q 2594 391 2855 752 
Q 3116 1113 3116 1747 
z
" transform="scale(0.015625)"/>
       <path id="DejaVuSans-69" d="M 603 3500 
L 1178 3500 
L 1178 0 
L 603 0 
L 603 3500 
z
M 603 4863 
L 1178 4863 
L 1178 4134 
L 603 4134 
L 603 4863 
z
" transform="scale(0.015625)"/>
       <path id="DejaVuSans-72" d="M 2631 2963 
Q 2534 3019 2420 3045 
Q 2306 3072 2169 3072 
Q 1681 3072 1420 2755 
Q 1159 2438 1159 1844 
L 1159 0 
L 581 0 
L 581 3500 
L 1159 3500 
L 1159 2956 
Q 1341 3275 1631 3429 
Q 1922 3584 2338 3584 
Q 2397 3584 2469 3576 
Q 2541 3569 2628 3553 
L 2631 2963 
z
" transform="scale(0.015625)"/>
       <path id="DejaVuSans-61" d="M 2194 1759 
Q 1497 1759 1228 1600 
Q 959 1441 959 1056 
Q 959 750 1161 570 
Q 1363 391 1709 391 
Q 2188 391 2477 730 
Q 2766 1069 2766 1631 
L 2766 1759 
L 2194 1759 
z
M 3341 1997 
L 3341 0 
L 2766 0 
L 2766 531 
Q 2569 213 2275 61 
Q 1981 -91 1556 -91 
Q 1019 -91 701 211 
Q 384 513 384 1019 
Q 384 1609 779 1909 
Q 1175 2209 1959 2209 
L 2766 2209 
L 2766 2266 
Q 2766 2663 2505 2880 
Q 2244 3097 1772 3097 
Q 1472 3097 1187 3025 
Q 903 2953 641 2809 
L 641 3341 
Q 956 3463 1253 3523 
Q 1550 3584 1831 3584 
Q 2591 3584 2966 3190 
Q 3341 2797 3341 1997 
z
" transform="scale(0.015625)"/>
       <path id="DejaVuSans-74" d="M 1172 4494 
L 1172 3500 
L 2356 3500 
L 2356 3053 
L 1172 3053 
L 1172 1153 
Q 1172 725 1289 603 
Q 1406 481 1766 481 
L 2356 481 
L 2356 0 
L 1766 0 
Q 1100 0 847 248 
Q 594 497 594 1153 
L 594 3053 
L 172 3053 
L 172 3500 
L 594 3500 
L 594 4494 
L 1172 4494 
z
" transform="scale(0.015625)"/>
       <path id="DejaVuSans-6f" d="M 1959 3097 
Q 1497 3097 1228 2736 
Q 959 2375 959 1747 
Q 959 1119 1226 758 
Q 1494 397 1959 397 
Q 2419 397 2687 759 
Q 2956 1122 2956 1747 
Q 2956 2369 2687 2733 
Q 2419 3097 1959 3097 
z
M 1959 3584 
Q 2709 3584 3137 3096 
Q 3566 2609 3566 1747 
Q 3566 888 3137 398 
Q 2709 -91 1959 -91 
Q 1206 -91 779 398 
Q 353 888 353 1747 
Q 353 2609 779 3096 
Q 1206 3584 1959 3584 
z
" transform="scale(0.015625)"/>
       <path id="DejaVuSans-6e" d="M 3513 2113 
L 3513 0 
L 2938 0 
L 2938 2094 
Q 2938 2591 2744 2837 
Q 2550 3084 2163 3084 
Q 1697 3084 1428 2787 
Q 1159 2491 1159 1978 
L 1159 0 
L 581 0 
L 581 3500 
L 1159 3500 
L 1159 2956 
Q 1366 3272 1645 3428 
Q 1925 3584 2291 3584 
Q 2894 3584 3203 3211 
Q 3513 2838 3513 2113 
z
" transform="scale(0.015625)"/>
       <path id="DejaVuSans-20" transform="scale(0.015625)"/>
       <path id="DejaVuSans-67" d="M 2906 1791 
Q 2906 2416 2648 2759 
Q 2391 3103 1925 3103 
Q 1463 3103 1205 2759 
Q 947 2416 947 1791 
Q 947 1169 1205 825 
Q 1463 481 1925 481 
Q 2391 481 2648 825 
Q 2906 1169 2906 1791 
z
M 3481 434 
Q 3481 -459 3084 -895 
Q 2688 -1331 1869 -1331 
Q 1566 -1331 1297 -1286 
Q 1028 -1241 775 -1147 
L 775 -588 
Q 1028 -725 1275 -790 
Q 1522 -856 1778 -856 
Q 2344 -856 2625 -561 
Q 2906 -266 2906 331 
L 2906 616 
Q 2728 306 2450 153 
Q 2172 0 1784 0 
Q 1141 0 747 490 
Q 353 981 353 1791 
Q 353 2603 747 3093 
Q 1141 3584 1784 3584 
Q 2172 3584 2450 3431 
Q 2728 3278 2906 2969 
L 2906 3500 
L 3481 3500 
L 3481 434 
z
" transform="scale(0.015625)"/>
       <path id="DejaVuSans-6c" d="M 603 4863 
L 1178 4863 
L 1178 0 
L 603 0 
L 603 4863 
z
" transform="scale(0.015625)"/>
      </defs>
      <use xlink:href="#DejaVuSans-52"/>
      <use xlink:href="#DejaVuSans-65" transform="translate(64.982422 0)"/>
      <use xlink:href="#DejaVuSans-73" transform="translate(126.505859 0)"/>
      <use xlink:href="#DejaVuSans-70" transform="translate(178.605469 0)"/>
      <use xlink:href="#DejaVuSans-69" transform="translate(242.082031 0)"/>
      <use xlink:href="#DejaVuSans-72" transform="translate(269.865234 0)"/>
      <use xlink:href="#DejaVuSans-61" transform="translate(310.978516 0)"/>
      <use xlink:href="#DejaVuSans-74" transform="translate(372.257812 0)"/>
      <use xlink:href="#DejaVuSans-69" transform="translate(411.466797 0)"/>
      <use xlink:href="#DejaVuSans-6f" transform="translate(439.25 0)"/>
      <use xlink:href="#DejaVuSans-6e" transform="translate(500.431641 0)"/>
      <use xlink:href="#DejaVuSans-20" transform="translate(563.810547 0)"/>
      <use xlink:href="#DejaVuSans-73" transform="translate(595.597656 0)"/>
      <use xlink:href="#DejaVuSans-69" transform="translate(647.697266 0)"/>
      <use xlink:href="#DejaVuSans-67" transform="translate(675.480469 0)"/>
      <use xlink:href="#DejaVuSans-6e" transform="translate(738.957031 0)"/>
      <use xlink:href="#DejaVuSans-61" transform="translate(802.335938 0)"/>
      <use xlink:href="#DejaVuSans-6c" transform="translate(863.615234 0)"/>
     </g>
    </g>
   </g>
   <g id="line2d_8">
    <path d="M 126.174139 31.541647 
L 126.64958 31.664156 
L 127.14404 32.038286 
L 127.695553 32.746031 
L 128.361171 33.981088 
L 129.131387 35.907749 
L 130.025218 38.788231 
L 131.185296 43.375527 
L 134.056965 55.975685 
L 138.649734 76.926845 
L 140.732169 86.947504 
L 141.559438 89.840236 
L 142.253583 91.530601 
L 142.928711 92.62658 
L 143.736962 93.498084 
L 145.030164 94.501269 
L 145.990557 95.329138 
L 146.694211 96.266921 
L 148.348748 98.637373 
L 148.700575 98.726438 
L 148.995349 98.572481 
L 149.309141 98.127894 
L 149.679986 97.172787 
L 150.117392 95.379214 
L 150.649887 92.164669 
L 151.325015 86.570867 
L 152.323443 76.146606 
L 154.776723 50.020083 
L 155.727607 42.509525 
L 156.573893 37.494966 
L 157.3346 34.23644 
L 158.000219 32.269731 
L 158.589767 31.156592 
L 159.084226 30.647784 
L 159.521633 30.498984 
L 159.540651 30.498352 
L 159.540651 30.498352 
" clip-path="url(#pac4002c36b)" style="fill: none; stroke: #1f77b4; stroke-linecap: square"/>
   </g>
   <g id="line2d_9">
    <path d="M 159.550159 30.498087 
L 159.978057 30.619312 
L 160.424972 30.988063 
L 160.985994 31.767955 
L 161.680139 33.151487 
L 162.526426 35.374056 
L 163.55338 38.747409 
L 164.960688 44.236494 
L 167.214283 52.826196 
L 170.884694 65.399268 
L 172.795971 71.928754 
L 175.25876 80.705347 
L 176.067011 82.685752 
L 176.856244 84.035533 
L 178.177973 85.725592 
L 179.138365 86.684102 
L 179.67086 86.934888 
L 180.108267 86.905968 
L 180.517147 86.649802 
L 180.954553 86.098684 
L 181.458522 85.076157 
L 182.029052 83.370812 
L 182.656635 80.748269 
L 183.407834 76.570017 
L 184.349209 69.98371 
L 185.81357 57.908093 
L 187.296948 46.316113 
L 188.295376 40.218517 
L 189.16068 36.207571 
L 189.949914 33.537968 
L 190.644059 31.911477 
L 191.252625 31.001066 
L 191.794629 30.553747 
L 192.260562 30.428691 
L 192.260562 30.428691 
" clip-path="url(#pac4002c36b)" style="fill: none; stroke: #aec7e8; stroke-linecap: square"/>
   </g>
   <g id="line2d_10">
    <path d="M 192.27007 30.428405 
L 192.736003 30.540581 
L 193.220954 30.895411 
L 193.791484 31.601505 
L 194.542683 32.933412 
L 195.522093 35.183761 
L 196.710698 38.508647 
L 197.946847 42.589418 
L 199.040363 47.018415 
L 200.770971 55.235943 
L 202.729792 64.208783 
L 204.22268 69.951427 
L 205.753603 74.969756 
L 207.351087 80.252445 
L 209.138749 87.161197 
L 210.374898 91.477142 
L 211.154622 93.436289 
L 211.915329 94.749609 
L 212.685545 95.623682 
L 213.398708 96.110315 
L 213.978747 96.266615 
L 214.482716 96.182442 
L 214.958158 95.866743 
L 215.414582 95.296386 
L 215.909041 94.306082 
L 216.441536 92.688476 
L 217.021575 90.147823 
L 217.696703 86.098072 
L 218.542989 79.52328 
L 219.817174 67.602251 
L 221.614344 51.115857 
L 222.63179 43.82741 
L 223.468567 39.312385 
L 224.153204 36.721942 
L 224.723734 35.346318 
L 225.208685 34.703731 
L 225.598547 34.512355 
L 225.665109 34.507708 
L 225.665109 34.507708 
" clip-path="url(#pac4002c36b)" style="fill: none; stroke: #ff7f0e; stroke-linecap: square"/>
   </g>
   <g id="line2d_11">
    <path d="M 225.674618 34.507708 
L 226.016936 34.612996 
L 226.416307 34.985781 
L 226.891749 35.751795 
L 227.528841 37.24416 
L 228.403654 39.940706 
L 229.525697 44.166343 
L 230.780864 49.804983 
L 232.825264 60.158034 
L 234.185028 66.549582 
L 235.231 70.421612 
L 236.257954 73.393055 
L 237.579683 76.482971 
L 240.413316 82.866081 
L 241.345183 85.934047 
L 243.513198 93.324643 
L 243.960113 94.036525 
L 244.273905 94.196657 
L 244.540152 94.090228 
L 244.834926 93.704175 
L 245.205771 92.808682 
L 245.662195 91.061801 
L 246.223216 87.951423 
L 246.936379 82.623346 
L 247.972843 72.998828 
L 250.483176 49.247792 
L 251.51013 41.897041 
L 252.432488 36.793051 
L 253.240739 33.453959 
L 253.925375 31.492243 
L 254.476888 30.521016 
L 254.923803 30.139752 
L 255.171033 30.08452 
L 255.171033 30.08452 
" clip-path="url(#pac4002c36b)" style="fill: none; stroke: #ffbb78; stroke-linecap: square"/>
   </g>
   <g id="line2d_12">
    <path d="M 255.180542 30.084479 
L 255.532369 30.201444 
L 255.93174 30.605596 
L 256.397673 31.431875 
L 256.977712 32.948535 
L 257.757437 35.656127 
L 259.221798 41.714836 
L 262.207573 54.999464 
L 265.25991 69.9682 
L 267.019045 78.189151 
L 268.026982 81.934066 
L 268.787689 83.967013 
L 269.500851 85.264517 
L 270.156961 86.039498 
L 270.737 86.40996 
L 271.212442 86.460831 
L 271.668866 86.269944 
L 272.144308 85.805954 
L 272.638768 85.006129 
L 273.180772 83.695948 
L 273.760811 81.671459 
L 274.416921 78.52409 
L 275.215663 73.533295 
L 276.261635 65.464018 
L 278.962145 43.893261 
L 279.865485 38.800175 
L 280.635701 35.645162 
L 281.272793 33.890149 
L 281.814796 32.989969 
L 282.252203 32.632204 
L 282.556486 32.564438 
L 282.556486 32.564438 
" clip-path="url(#pac4002c36b)" style="fill: none; stroke: #2ca02c; stroke-linecap: square"/>
   </g>
   <g id="line2d_13">
    <path d="M 282.565995 32.564397 
L 282.946348 32.683564 
L 283.355228 33.044895 
L 283.878214 33.840196 
L 284.524815 35.278633 
L 285.380611 37.770617 
L 286.816445 42.754115 
L 288.993969 51.163467 
L 292.787995 66.252511 
L 293.872003 69.247901 
L 295.117661 71.991771 
L 297.542414 77.1353 
L 299.748465 82.59575 
L 300.204889 83.097139 
L 300.537698 83.171549 
L 300.832472 83.000065 
L 301.165282 82.515592 
L 301.574162 81.47668 
L 302.07813 79.521099 
L 302.705713 76.116707 
L 303.523473 70.349056 
L 304.883237 58.862343 
L 306.49974 45.742372 
L 307.460132 39.72685 
L 308.287401 35.853067 
L 309.019582 33.408917 
L 309.656674 31.997036 
L 310.189169 31.315379 
L 310.636084 31.077616 
L 310.759699 31.06445 
L 310.759699 31.06445 
" clip-path="url(#pac4002c36b)" style="fill: none; stroke: #98df8a; stroke-linecap: square"/>
   </g>
   <g id="line2d_14">
    <path d="M 310.769208 31.064103 
L 311.178088 31.17952 
L 311.625003 31.565798 
L 312.147989 32.350256 
L 312.804099 33.796234 
L 313.545788 36.005149 
L 314.344531 39.074745 
L 315.24787 43.465712 
L 316.64567 51.582823 
L 318.671052 63.169993 
L 319.812113 68.363964 
L 320.943664 72.515416 
L 322.303428 76.613123 
L 323.938948 81.674129 
L 324.785235 83.938255 
L 325.298712 84.745581 
L 325.64103 84.933899 
L 325.907278 84.843918 
L 326.192543 84.484502 
L 326.54437 83.633807 
L 326.972267 81.965025 
L 327.52378 78.833756 
L 328.274978 73.158431 
L 329.644251 60.753337 
L 331.146647 47.857249 
L 332.135566 41.186239 
L 332.972344 36.946539 
L 333.733051 34.167675 
L 334.389161 32.534987 
L 334.940674 31.677138 
L 335.416115 31.300888 
L 335.720398 31.230737 
L 335.720398 31.230737 
" clip-path="url(#pac4002c36b)" style="fill: none; stroke: #d62728; stroke-linecap: square"/>
   </g>
   <g id="line2d_15">
    <path d="M 335.729907 31.230411 
L 336.138787 31.34273 
L 336.595211 31.732778 
L 337.127706 32.519355 
L 337.783816 33.91911 
L 338.592067 36.20219 
L 339.533442 39.541201 
L 340.512853 43.892975 
L 341.606369 49.852328 
L 344.715759 67.459973 
L 345.714187 71.486306 
L 346.741141 74.729201 
L 347.739569 77.177957 
L 349.907584 82.153201 
L 352.199214 88.342042 
L 352.589077 88.69679 
L 352.874342 88.687211 
L 353.150098 88.430433 
L 353.473399 87.792391 
L 353.882279 86.441285 
L 354.395756 83.899226 
L 355.070883 79.294465 
L 356.021767 71.092793 
L 358.760312 46.550451 
L 359.68267 40.681039 
L 360.538465 36.577646 
L 361.384752 33.571047 
L 362.221529 31.399531 
L 362.963219 30.05672 
L 363.581293 29.367746 
L 364.075753 29.116104 
L 364.284947 29.094705 
L 364.284947 29.094705 
" clip-path="url(#pac4002c36b)" style="fill: none; stroke: #ff9896; stroke-linecap: square"/>
   </g>
   <g id="line2d_16">
    <path d="M 364.294456 29.094664 
L 364.741371 29.226854 
L 365.188287 29.594952 
L 365.711273 30.337894 
L 366.300821 31.590153 
L 367.023492 33.694106 
L 368.012412 37.366669 
L 369.942706 45.574882 
L 372.386477 55.61739 
L 377.692409 75.940698 
L 378.57673 78.404862 
L 379.299402 79.804332 
L 380.003056 80.708323 
L 380.611622 81.180017 
L 381.134608 81.326983 
L 381.581523 81.22141 
L 381.990403 80.887919 
L 382.437319 80.212315 
L 382.931778 79.033386 
L 383.511817 77.027322 
L 384.22498 73.682197 
L 385.137829 68.236645 
L 386.526119 58.385636 
L 388.532484 44.46374 
L 389.559438 38.843912 
L 390.424742 35.240786 
L 391.156923 33.059957 
L 391.746471 31.932286 
L 392.221913 31.453907 
L 392.554722 31.35398 
L 392.554722 31.35398 
" clip-path="url(#pac4002c36b)" style="fill: none; stroke: #9467bd; stroke-linecap: square"/>
   </g>
   <g id="line2d_17">
    <path d="M 392.564231 31.35396 
L 392.916058 31.462773 
L 393.324938 31.846666 
L 393.828906 32.65766 
L 394.485016 34.183694 
L 395.35032 36.828901 
L 396.538925 41.250174 
L 397.908198 47.261946 
L 399.886036 57.094123 
L 403.385288 74.32882 
L 404.307646 77.632123 
L 405.068353 79.608227 
L 405.800533 80.906221 
L 406.694364 82.026188 
L 407.930513 83.22458 
L 408.757782 83.77205 
L 409.356839 83.904056 
L 409.851298 83.780222 
L 410.298214 83.428979 
L 410.754638 82.756942 
L 411.220571 81.643314 
L 411.753066 79.750954 
L 412.399667 76.567837 
L 413.198409 71.443833 
L 414.291925 62.813003 
L 416.326817 46.649971 
L 417.334754 40.470689 
L 418.133496 36.82032 
L 418.808623 34.683289 
L 419.369645 33.581828 
L 419.835578 33.111194 
L 420.196914 33.001117 
L 420.196914 33.001117 
" clip-path="url(#pac4002c36b)" style="fill: none; stroke: #c5b0d5; stroke-linecap: square"/>
   </g>
   <g id="line2d_18">
    <path d="M 420.206423 33.001056 
L 420.586776 33.111377 
L 421.005165 33.473015 
L 421.509133 34.212207 
L 422.174752 35.614611 
L 423.0876 38.131195 
L 424.323749 42.230736 
L 426.063867 48.828314 
L 427.708896 55.899033 
L 430.000526 65.788195 
L 430.951409 68.803946 
L 431.835731 70.885296 
L 432.796124 72.584119 
L 433.965711 74.216236 
L 435.211369 75.579163 
L 436.124217 76.700495 
L 436.884924 78.015242 
L 438.444374 80.824718 
L 438.900798 81.184765 
L 439.224098 81.180567 
L 439.528381 80.93671 
L 439.880208 80.329403 
L 440.298597 79.120779 
L 440.812074 76.904996 
L 441.506219 72.808207 
L 442.504647 65.43147 
L 445.309754 44.077931 
L 446.260638 38.80637 
L 447.097416 35.35072 
L 447.829597 33.205068 
L 448.447671 32.019251 
L 448.961148 31.456842 
L 449.398555 31.275697 
L 449.465117 31.272171 
L 449.465117 31.272171 
" clip-path="url(#pac4002c36b)" style="fill: none; stroke: #8c564b; stroke-linecap: square"/>
   </g>
   <g id="line2d_19">
    <path d="M 449.474625 31.27211 
L 449.864488 31.381698 
L 450.292386 31.744578 
L 450.786845 32.477249 
L 451.395411 33.831452 
L 452.127591 36.065945 
L 452.935842 39.294654 
L 453.839182 43.883784 
L 455.113366 51.681385 
L 457.433523 65.871227 
L 458.631636 71.687078 
L 460.019927 77.323129 
L 462.054818 85.436816 
L 464.717293 96.914786 
L 465.39242 98.701451 
L 465.905897 99.505841 
L 466.324286 99.798897 
L 466.666604 99.785303 
L 467.008922 99.526568 
L 467.398785 98.924132 
L 467.874227 97.733464 
L 468.435248 95.665992 
L 469.07234 92.413947 
L 469.823538 87.342586 
L 470.812458 79.018345 
L 473.104088 57.192583 
L 474.416307 46.181273 
L 475.3767 39.860222 
L 476.203969 35.769322 
L 476.936149 33.189212 
L 477.544715 31.797385 
L 478.039174 31.164601 
L 478.448054 30.969964 
L 478.514616 30.965318 
L 478.514616 30.965318 
" clip-path="url(#pac4002c36b)" style="fill: none; stroke: #c49c94; stroke-linecap: square"/>
   </g>
   <g id="line2d_20">
    <path d="M 478.524125 30.965277 
L 478.89497 31.077188 
L 479.332376 31.474716 
L 479.836345 32.253549 
L 480.492455 33.729242 
L 481.291197 36.115959 
L 482.289625 39.863381 
L 483.525774 45.458895 
L 485.389506 55.091728 
L 488.032963 68.710989 
L 489.021882 72.657592 
L 489.849151 75.109528 
L 490.628876 76.744661 
L 491.456145 77.96965 
L 492.321449 78.868648 
L 493.567107 79.788699 
L 494.546517 80.643858 
L 495.906281 81.91713 
L 496.315161 81.994292 
L 496.657479 81.821646 
L 496.990288 81.398683 
L 497.380151 80.518272 
L 497.836575 78.886583 
L 498.378579 76.056543 
L 499.072724 71.122427 
L 500.147222 61.632586 
L 501.953902 45.874399 
L 502.904785 39.485459 
L 503.722545 35.419118 
L 504.407182 33.061689 
L 504.99673 31.761678 
L 505.491189 31.155715 
L 505.900069 30.96707 
L 505.966631 30.96224 
L 505.966631 30.96224 
" clip-path="url(#pac4002c36b)" style="fill: none; stroke: #e377c2; stroke-linecap: square"/>
   </g>
   <g id="line2d_21">
    <path d="M 505.97614 30.961914 
L 506.366002 31.080347 
L 506.774882 31.459512 
L 507.259833 32.235104 
L 507.85889 33.648371 
L 508.562544 35.913109 
L 509.437357 39.509774 
L 510.740068 45.890439 
L 512.9271 57.795692 
L 514.952483 68.608779 
L 515.969929 72.810775 
L 516.825724 75.447951 
L 517.767099 77.607523 
L 518.727492 79.306367 
L 519.402619 80.085872 
L 519.878061 80.324858 
L 520.267923 80.282343 
L 520.648277 80.007365 
L 521.066666 79.417891 
L 521.551616 78.333876 
L 522.112638 76.518698 
L 522.816292 73.434244 
L 523.662578 68.668209 
L 524.927254 60.093712 
L 527.161831 44.893857 
L 528.141241 39.853129 
L 528.997036 36.523494 
L 529.719708 34.511275 
L 530.328274 33.406268 
L 530.832242 32.912073 
L 531.241122 32.789096 
L 531.241122 32.789096 
" clip-path="url(#pac4002c36b)" style="fill: none; stroke: #f7b6d2; stroke-linecap: square"/>
   </g>
   <g id="patch_3">
    <path d="M 105.132031 103.358697 
L 105.132031 25.558281 
" style="fill: none; stroke: #000000; stroke-width: 0.8; stroke-linejoin: miter; stroke-linecap: square"/>
   </g>
   <g id="patch_4">
    <path d="M 105.132031 103.358697 
L 551.532031 103.358697 
" style="fill: none; stroke: #000000; stroke-width: 0.8; stroke-linejoin: miter; stroke-linecap: square"/>
   </g>
   <g id="text_4">
    <!-- Observed data -->
    <g transform="translate(105.132031 15.558281) scale(0.11 -0.11)">
     <defs>
      <path id="DejaVuSans-4f" d="M 2522 4238 
Q 1834 4238 1429 3725 
Q 1025 3213 1025 2328 
Q 1025 1447 1429 934 
Q 1834 422 2522 422 
Q 3209 422 3611 934 
Q 4013 1447 4013 2328 
Q 4013 3213 3611 3725 
Q 3209 4238 2522 4238 
z
M 2522 4750 
Q 3503 4750 4090 4092 
Q 4678 3434 4678 2328 
Q 4678 1225 4090 567 
Q 3503 -91 2522 -91 
Q 1538 -91 948 565 
Q 359 1222 359 2328 
Q 359 3434 948 4092 
Q 1538 4750 2522 4750 
z
" transform="scale(0.015625)"/>
      <path id="DejaVuSans-62" d="M 3116 1747 
Q 3116 2381 2855 2742 
Q 2594 3103 2138 3103 
Q 1681 3103 1420 2742 
Q 1159 2381 1159 1747 
Q 1159 1113 1420 752 
Q 1681 391 2138 391 
Q 2594 391 2855 752 
Q 3116 1113 3116 1747 
z
M 1159 2969 
Q 1341 3281 1617 3432 
Q 1894 3584 2278 3584 
Q 2916 3584 3314 3078 
Q 3713 2572 3713 1747 
Q 3713 922 3314 415 
Q 2916 -91 2278 -91 
Q 1894 -91 1617 61 
Q 1341 213 1159 525 
L 1159 0 
L 581 0 
L 581 4863 
L 1159 4863 
L 1159 2969 
z
" transform="scale(0.015625)"/>
      <path id="DejaVuSans-76" d="M 191 3500 
L 800 3500 
L 1894 563 
L 2988 3500 
L 3597 3500 
L 2284 0 
L 1503 0 
L 191 3500 
z
" transform="scale(0.015625)"/>
      <path id="DejaVuSans-64" d="M 2906 2969 
L 2906 4863 
L 3481 4863 
L 3481 0 
L 2906 0 
L 2906 525 
Q 2725 213 2448 61 
Q 2172 -91 1784 -91 
Q 1150 -91 751 415 
Q 353 922 353 1747 
Q 353 2572 751 3078 
Q 1150 3584 1784 3584 
Q 2172 3584 2448 3432 
Q 2725 3281 2906 2969 
z
M 947 1747 
Q 947 1113 1208 752 
Q 1469 391 1925 391 
Q 2381 391 2643 752 
Q 2906 1113 2906 1747 
Q 2906 2381 2643 2742 
Q 2381 3103 1925 3103 
Q 1469 3103 1208 2742 
Q 947 2381 947 1747 
z
" transform="scale(0.015625)"/>
     </defs>
     <use xlink:href="#DejaVuSans-4f"/>
     <use xlink:href="#DejaVuSans-62" transform="translate(78.710938 0)"/>
     <use xlink:href="#DejaVuSans-73" transform="translate(142.1875 0)"/>
     <use xlink:href="#DejaVuSans-65" transform="translate(194.287109 0)"/>
     <use xlink:href="#DejaVuSans-72" transform="translate(255.810547 0)"/>
     <use xlink:href="#DejaVuSans-76" transform="translate(296.923828 0)"/>
     <use xlink:href="#DejaVuSans-65" transform="translate(356.103516 0)"/>
     <use xlink:href="#DejaVuSans-64" transform="translate(417.626953 0)"/>
     <use xlink:href="#DejaVuSans-20" transform="translate(481.103516 0)"/>
     <use xlink:href="#DejaVuSans-64" transform="translate(512.890625 0)"/>
     <use xlink:href="#DejaVuSans-61" transform="translate(576.367188 0)"/>
     <use xlink:href="#DejaVuSans-74" transform="translate(637.646484 0)"/>
     <use xlink:href="#DejaVuSans-61" transform="translate(676.855469 0)"/>
    </g>
   </g>
  </g>
  <g id="axes_2">
   <g id="patch_5">
    <path d="M 105.132031 208.648593 
L 551.532031 208.648593 
L 551.532031 143.814913 
L 105.132031 143.814913 
z
" style="fill: #ffffff"/>
   </g>
   <g id="matplotlib.axis_3">
    <g id="xtick_6">
     <g id="line2d_22">
      <g>
       <use xlink:href="#mcd73079cb1" x="125.42294" y="208.648593" style="stroke: #000000; stroke-width: 0.8"/>
      </g>
     </g>
    </g>
    <g id="xtick_7">
     <g id="line2d_23">
      <g>
       <use xlink:href="#mcd73079cb1" x="220.511319" y="208.648593" style="stroke: #000000; stroke-width: 0.8"/>
      </g>
     </g>
    </g>
    <g id="xtick_8">
     <g id="line2d_24">
      <g>
       <use xlink:href="#mcd73079cb1" x="315.599697" y="208.648593" style="stroke: #000000; stroke-width: 0.8"/>
      </g>
     </g>
    </g>
    <g id="xtick_9">
     <g id="line2d_25">
      <g>
       <use xlink:href="#mcd73079cb1" x="410.688076" y="208.648593" style="stroke: #000000; stroke-width: 0.8"/>
      </g>
     </g>
    </g>
    <g id="xtick_10">
     <g id="line2d_26">
      <g>
       <use xlink:href="#mcd73079cb1" x="505.776454" y="208.648593" style="stroke: #000000; stroke-width: 0.8"/>
      </g>
     </g>
    </g>
   </g>
   <g id="matplotlib.axis_4">
    <g id="ytick_3">
     <g id="line2d_27">
      <g>
       <use xlink:href="#md7a5303dee" x="105.132031" y="208.648593" style="stroke: #000000; stroke-width: 0.8"/>
      </g>
     </g>
     <g id="text_5">
      <!-- 0 -->
      <g transform="translate(91.769531 212.447812) scale(0.1 -0.1)">
       <use xlink:href="#DejaVuSans-30"/>
      </g>
     </g>
    </g>
    <g id="ytick_4">
     <g id="line2d_28">
      <g>
       <use xlink:href="#md7a5303dee" x="105.132031" y="176.231753" style="stroke: #000000; stroke-width: 0.8"/>
      </g>
     </g>
     <g id="text_6">
      <!-- $\pi$ -->
      <g transform="translate(92.032031 180.030972) scale(0.1 -0.1)">
       <defs>
        <path id="DejaVuSans-Oblique-3c0" d="M 584 3500 
L 3938 3500 
L 3825 2925 
L 3384 2925 
L 2966 775 
Q 2922 550 2981 450 
Q 3038 353 3209 353 
Q 3256 353 3325 363 
Q 3397 369 3419 372 
L 3338 -44 
Q 3222 -84 3103 -103 
Q 2981 -122 2866 -122 
Q 2491 -122 2388 81 
Q 2284 288 2391 838 
L 2797 2925 
L 1506 2925 
L 938 0 
L 350 0 
L 919 2925 
L 472 2925 
L 584 3500 
z
" transform="scale(0.015625)"/>
       </defs>
       <use xlink:href="#DejaVuSans-Oblique-3c0" transform="translate(0 0.3125)"/>
      </g>
     </g>
    </g>
    <g id="ytick_5">
     <g id="line2d_29">
      <g>
       <use xlink:href="#md7a5303dee" x="105.132031" y="143.814913" style="stroke: #000000; stroke-width: 0.8"/>
      </g>
     </g>
     <g id="text_7">
      <!-- 2$\pi$ -->
      <g transform="translate(85.732031 147.614132) scale(0.1 -0.1)">
       <defs>
        <path id="DejaVuSans-32" d="M 1228 531 
L 3431 531 
L 3431 0 
L 469 0 
L 469 531 
Q 828 903 1448 1529 
Q 2069 2156 2228 2338 
Q 2531 2678 2651 2914 
Q 2772 3150 2772 3378 
Q 2772 3750 2511 3984 
Q 2250 4219 1831 4219 
Q 1534 4219 1204 4116 
Q 875 4013 500 3803 
L 500 4441 
Q 881 4594 1212 4672 
Q 1544 4750 1819 4750 
Q 2544 4750 2975 4387 
Q 3406 4025 3406 3419 
Q 3406 3131 3298 2873 
Q 3191 2616 2906 2266 
Q 2828 2175 2409 1742 
Q 1991 1309 1228 531 
z
" transform="scale(0.015625)"/>
       </defs>
       <use xlink:href="#DejaVuSans-32" transform="translate(0 0.78125)"/>
       <use xlink:href="#DejaVuSans-Oblique-3c0" transform="translate(63.623047 0.78125)"/>
      </g>
     </g>
    </g>
    <g id="text_8">
     <!-- Phase angle -->
     <g transform="translate(15.341406 174.152066) scale(0.1 -0.1)">
      <defs>
       <path id="DejaVuSans-50" d="M 1259 4147 
L 1259 2394 
L 2053 2394 
Q 2494 2394 2734 2622 
Q 2975 2850 2975 3272 
Q 2975 3691 2734 3919 
Q 2494 4147 2053 4147 
L 1259 4147 
z
M 628 4666 
L 2053 4666 
Q 2838 4666 3239 4311 
Q 3641 3956 3641 3272 
Q 3641 2581 3239 2228 
Q 2838 1875 2053 1875 
L 1259 1875 
L 1259 0 
L 628 0 
L 628 4666 
z
" transform="scale(0.015625)"/>
       <path id="DejaVuSans-68" d="M 3513 2113 
L 3513 0 
L 2938 0 
L 2938 2094 
Q 2938 2591 2744 2837 
Q 2550 3084 2163 3084 
Q 1697 3084 1428 2787 
Q 1159 2491 1159 1978 
L 1159 0 
L 581 0 
L 581 4863 
L 1159 4863 
L 1159 2956 
Q 1366 3272 1645 3428 
Q 1925 3584 2291 3584 
Q 2894 3584 3203 3211 
Q 3513 2838 3513 2113 
z
" transform="scale(0.015625)"/>
      </defs>
      <use xlink:href="#DejaVuSans-50"/>
      <use xlink:href="#DejaVuSans-68" transform="translate(60.302734 0)"/>
      <use xlink:href="#DejaVuSans-61" transform="translate(123.681641 0)"/>
      <use xlink:href="#DejaVuSans-73" transform="translate(184.960938 0)"/>
      <use xlink:href="#DejaVuSans-65" transform="translate(237.060547 0)"/>
      <use xlink:href="#DejaVuSans-20" transform="translate(298.583984 0)"/>
      <use xlink:href="#DejaVuSans-61" transform="translate(330.371094 0)"/>
      <use xlink:href="#DejaVuSans-6e" transform="translate(391.650391 0)"/>
      <use xlink:href="#DejaVuSans-67" transform="translate(455.029297 0)"/>
      <use xlink:href="#DejaVuSans-6c" transform="translate(518.505859 0)"/>
      <use xlink:href="#DejaVuSans-65" transform="translate(546.289062 0)"/>
     </g>
    </g>
   </g>
   <g id="line2d_30">
    <path d="M 126.174139 208.648593 
L 148.776646 175.835735 
L 159.540651 143.814911 
L 159.540651 143.814911 
" clip-path="url(#pad40e2479d)" style="fill: none; stroke: #1f77b4; stroke-linecap: square"/>
   </g>
   <g id="line2d_31">
    <path d="M 159.550159 208.648593 
L 180.051214 175.661296 
L 192.260562 143.814911 
L 192.260562 143.814911 
" clip-path="url(#pad40e2479d)" style="fill: none; stroke: #aec7e8; stroke-linecap: square"/>
   </g>
   <g id="line2d_32">
    <path d="M 192.27007 208.648593 
L 214.206959 175.780783 
L 225.665109 143.814911 
L 225.665109 143.814911 
" clip-path="url(#pad40e2479d)" style="fill: none; stroke: #ff7f0e; stroke-linecap: square"/>
   </g>
   <g id="line2d_33">
    <path d="M 225.674618 208.648593 
L 244.464081 175.666015 
L 255.171033 143.814911 
L 255.171033 143.814911 
" clip-path="url(#pad40e2479d)" style="fill: none; stroke: #ffbb78; stroke-linecap: square"/>
   </g>
   <g id="line2d_34">
    <path d="M 255.180542 208.648593 
L 271.402619 175.266487 
L 282.556486 143.814911 
L 282.556486 143.814911 
" clip-path="url(#pad40e2479d)" style="fill: none; stroke: #2ca02c; stroke-linecap: square"/>
   </g>
   <g id="line2d_35">
    <path d="M 282.565995 208.648593 
L 300.651804 175.662511 
L 310.759699 143.814911 
L 310.759699 143.814911 
" clip-path="url(#pad40e2479d)" style="fill: none; stroke: #98df8a; stroke-linecap: square"/>
   </g>
   <g id="line2d_36">
    <path d="M 310.769208 208.648593 
L 325.926295 175.37384 
L 335.720398 143.814911 
L 335.720398 143.814911 
" clip-path="url(#pad40e2479d)" style="fill: none; stroke: #d62728; stroke-linecap: square"/>
   </g>
   <g id="line2d_37">
    <path d="M 335.729907 208.648593 
L 353.007465 175.431996 
L 364.284947 143.814911 
L 364.284947 143.814911 
" clip-path="url(#pad40e2479d)" style="fill: none; stroke: #ff9896; stroke-linecap: square"/>
   </g>
   <g id="line2d_38">
    <path d="M 364.294456 208.648593 
L 381.429382 175.447694 
L 392.554722 143.814911 
L 392.554722 143.814911 
" clip-path="url(#pad40e2479d)" style="fill: none; stroke: #9467bd; stroke-linecap: square"/>
   </g>
   <g id="line2d_39">
    <path d="M 392.564231 208.648593 
L 409.585051 175.493716 
L 420.196914 143.814911 
L 420.196914 143.814911 
" clip-path="url(#pad40e2479d)" style="fill: none; stroke: #c5b0d5; stroke-linecap: square"/>
   </g>
   <g id="line2d_40">
    <path d="M 420.206423 208.648593 
L 439.224098 175.728018 
L 449.465117 143.814911 
L 449.465117 143.814911 
" clip-path="url(#pad40e2479d)" style="fill: none; stroke: #8c564b; stroke-linecap: square"/>
   </g>
   <g id="line2d_41">
    <path d="M 449.474625 208.648593 
L 466.799728 175.361158 
L 478.514616 143.814911 
L 478.514616 143.814911 
" clip-path="url(#pad40e2479d)" style="fill: none; stroke: #c49c94; stroke-linecap: square"/>
   </g>
   <g id="line2d_42">
    <path d="M 478.524125 208.648593 
L 496.391231 175.693583 
L 505.966631 143.814911 
L 505.966631 143.814911 
" clip-path="url(#pad40e2479d)" style="fill: none; stroke: #e377c2; stroke-linecap: square"/>
   </g>
   <g id="line2d_43">
    <path d="M 505.97614 208.648593 
L 520.524662 174.723356 
L 531.241122 143.814911 
L 531.241122 143.814911 
" clip-path="url(#pad40e2479d)" style="fill: none; stroke: #f7b6d2; stroke-linecap: square"/>
   </g>
   <g id="patch_6">
    <path d="M 105.132031 208.648593 
L 105.132031 143.814913 
" style="fill: none; stroke: #000000; stroke-width: 0.8; stroke-linejoin: miter; stroke-linecap: square"/>
   </g>
   <g id="patch_7">
    <path d="M 105.132031 208.648593 
L 551.532031 208.648593 
" style="fill: none; stroke: #000000; stroke-width: 0.8; stroke-linejoin: miter; stroke-linecap: square"/>
   </g>
   <g id="line2d_44">
    <path d="M 162.925797 208.648593 
L 162.925797 143.814913 
" clip-path="url(#pad40e2479d)" style="fill: none; stroke-dasharray: 5.55,2.4; stroke-dashoffset: 0; stroke: #808080; stroke-opacity: 0.4; stroke-width: 1.5"/>
   </g>
   <g id="line2d_45">
    <path d="M 228.280039 208.648593 
L 228.280039 143.814913 
" clip-path="url(#pad40e2479d)" style="fill: none; stroke-dasharray: 5.55,2.4; stroke-dashoffset: 0; stroke: #808080; stroke-opacity: 0.4; stroke-width: 1.5"/>
   </g>
   <g id="line2d_46">
    <path d="M 293.634282 208.648593 
L 293.634282 143.814913 
" clip-path="url(#pad40e2479d)" style="fill: none; stroke-dasharray: 5.55,2.4; stroke-dashoffset: 0; stroke: #808080; stroke-opacity: 0.4; stroke-width: 1.5"/>
   </g>
   <g id="line2d_47">
    <path d="M 358.988524 208.648593 
L 358.988524 143.814913 
" clip-path="url(#pad40e2479d)" style="fill: none; stroke-dasharray: 5.55,2.4; stroke-dashoffset: 0; stroke: #808080; stroke-opacity: 0.4; stroke-width: 1.5"/>
   </g>
   <g id="line2d_48">
    <path d="M 424.342767 208.648593 
L 424.342767 143.814913 
" clip-path="url(#pad40e2479d)" style="fill: none; stroke-dasharray: 5.55,2.4; stroke-dashoffset: 0; stroke: #808080; stroke-opacity: 0.4; stroke-width: 1.5"/>
   </g>
   <g id="line2d_49">
    <path d="M 489.69701 208.648593 
L 489.69701 143.814913 
" clip-path="url(#pad40e2479d)" style="fill: none; stroke-dasharray: 5.55,2.4; stroke-dashoffset: 0; stroke: #808080; stroke-opacity: 0.4; stroke-width: 1.5"/>
   </g>
   <g id="PathCollection_1">
    <defs>
     <path id="me2d690068f" d="M 0 1.581139 
C 0.419323 1.581139 0.821528 1.41454 1.118034 1.118034 
C 1.41454 0.821528 1.581139 0.419323 1.581139 0 
C 1.581139 -0.419323 1.41454 -0.821528 1.118034 -1.118034 
C 0.821528 -1.41454 0.419323 -1.581139 0 -1.581139 
C -0.419323 -1.581139 -0.821528 -1.41454 -1.118034 -1.118034 
C -1.41454 -0.821528 -1.581139 -0.419323 -1.581139 0 
C -1.581139 0.419323 -1.41454 0.821528 -1.118034 1.118034 
C -0.821528 1.41454 -0.419323 1.581139 0 1.581139 
z
" style="stroke: #228b22"/>
    </defs>
    <g clip-path="url(#pad40e2479d)">
     <use xlink:href="#me2d690068f" x="162.925797" y="203.250855" style="fill: #228b22; stroke: #228b22"/>
    </g>
   </g>
   <g id="PathCollection_2">
    <g clip-path="url(#pad40e2479d)">
     <use xlink:href="#me2d690068f" x="228.280039" y="204.105261" style="fill: #228b22; stroke: #228b22"/>
    </g>
   </g>
   <g id="PathCollection_3">
    <g clip-path="url(#pad40e2479d)">
     <use xlink:href="#me2d690068f" x="293.634282" y="188.59907" style="fill: #228b22; stroke: #228b22"/>
    </g>
   </g>
   <g id="PathCollection_4">
    <g clip-path="url(#pad40e2479d)">
     <use xlink:href="#me2d690068f" x="358.988524" y="158.663743" style="fill: #228b22; stroke: #228b22"/>
    </g>
   </g>
   <g id="PathCollection_5">
    <g clip-path="url(#pad40e2479d)">
     <use xlink:href="#me2d690068f" x="424.342767" y="201.533898" style="fill: #228b22; stroke: #228b22"/>
    </g>
   </g>
   <g id="PathCollection_6">
    <g clip-path="url(#pad40e2479d)">
     <use xlink:href="#me2d690068f" x="489.69701" y="188.181217" style="fill: #228b22; stroke: #228b22"/>
    </g>
   </g>
   <g id="legend_1">
    <g id="patch_8">
     <path d="M 452.344531 161.957413 
L 545.932031 161.957413 
Q 547.532031 161.957413 547.532031 160.357413 
L 547.532031 149.414913 
Q 547.532031 147.814913 545.932031 147.814913 
L 452.344531 147.814913 
Q 450.744531 147.814913 450.744531 149.414913 
L 450.744531 160.357413 
Q 450.744531 161.957413 452.344531 161.957413 
z
" style="fill: #ffffff; opacity: 0.8; stroke: #cccccc; stroke-linejoin: miter"/>
    </g>
    <g id="PathCollection_7">
     <g>
      <use xlink:href="#me2d690068f" x="461.944531" y="154.993663" style="fill: #228b22; stroke: #228b22"/>
     </g>
    </g>
    <g id="text_9">
     <!-- Observed events -->
     <g transform="translate(476.344531 157.093663) scale(0.08 -0.08)">
      <use xlink:href="#DejaVuSans-4f"/>
      <use xlink:href="#DejaVuSans-62" transform="translate(78.710938 0)"/>
      <use xlink:href="#DejaVuSans-73" transform="translate(142.1875 0)"/>
      <use xlink:href="#DejaVuSans-65" transform="translate(194.287109 0)"/>
      <use xlink:href="#DejaVuSans-72" transform="translate(255.810547 0)"/>
      <use xlink:href="#DejaVuSans-76" transform="translate(296.923828 0)"/>
      <use xlink:href="#DejaVuSans-65" transform="translate(356.103516 0)"/>
      <use xlink:href="#DejaVuSans-64" transform="translate(417.626953 0)"/>
      <use xlink:href="#DejaVuSans-20" transform="translate(481.103516 0)"/>
      <use xlink:href="#DejaVuSans-65" transform="translate(512.890625 0)"/>
      <use xlink:href="#DejaVuSans-76" transform="translate(574.414062 0)"/>
      <use xlink:href="#DejaVuSans-65" transform="translate(633.59375 0)"/>
      <use xlink:href="#DejaVuSans-6e" transform="translate(695.117188 0)"/>
      <use xlink:href="#DejaVuSans-74" transform="translate(758.496094 0)"/>
      <use xlink:href="#DejaVuSans-73" transform="translate(797.705078 0)"/>
     </g>
    </g>
   </g>
  </g>
  <g id="axes_3">
   <g id="patch_9">
    <path d="M 105.132031 313.938489 
L 551.532031 313.938489 
L 551.532031 249.104809 
L 105.132031 249.104809 
z
" style="fill: #ffffff"/>
   </g>
   <g id="matplotlib.axis_5">
    <g id="xtick_11">
     <g id="line2d_50">
      <g>
       <use xlink:href="#mcd73079cb1" x="125.42294" y="313.938489" style="stroke: #000000; stroke-width: 0.8"/>
      </g>
     </g>
    </g>
    <g id="xtick_12">
     <g id="line2d_51">
      <g>
       <use xlink:href="#mcd73079cb1" x="220.511319" y="313.938489" style="stroke: #000000; stroke-width: 0.8"/>
      </g>
     </g>
    </g>
    <g id="xtick_13">
     <g id="line2d_52">
      <g>
       <use xlink:href="#mcd73079cb1" x="315.599697" y="313.938489" style="stroke: #000000; stroke-width: 0.8"/>
      </g>
     </g>
    </g>
    <g id="xtick_14">
     <g id="line2d_53">
      <g>
       <use xlink:href="#mcd73079cb1" x="410.688076" y="313.938489" style="stroke: #000000; stroke-width: 0.8"/>
      </g>
     </g>
    </g>
    <g id="xtick_15">
     <g id="line2d_54">
      <g>
       <use xlink:href="#mcd73079cb1" x="505.776454" y="313.938489" style="stroke: #000000; stroke-width: 0.8"/>
      </g>
     </g>
    </g>
   </g>
   <g id="matplotlib.axis_6">
    <g id="ytick_6">
     <g id="line2d_55">
      <defs>
       <path id="me42f21ee05" d="M 0 0 
L -3.5 0 
" style="stroke: #696969; stroke-width: 0.8"/>
      </defs>
      <g>
       <use xlink:href="#me42f21ee05" x="105.132031" y="313.938489" style="fill: #696969; stroke: #696969; stroke-width: 0.8"/>
      </g>
     </g>
     <g id="text_10">
      <!-- 0 -->
      <g style="fill: #696969" transform="translate(91.769531 317.737708) scale(0.1 -0.1)">
       <use xlink:href="#DejaVuSans-30"/>
      </g>
     </g>
    </g>
    <g id="ytick_7">
     <g id="line2d_56">
      <g>
       <use xlink:href="#me42f21ee05" x="105.132031" y="281.521649" style="fill: #696969; stroke: #696969; stroke-width: 0.8"/>
      </g>
     </g>
     <g id="text_11">
      <!-- $\pi$ -->
      <g style="fill: #696969" transform="translate(92.032031 285.320868) scale(0.1 -0.1)">
       <use xlink:href="#DejaVuSans-Oblique-3c0" transform="translate(0 0.3125)"/>
      </g>
     </g>
    </g>
    <g id="ytick_8">
     <g id="line2d_57">
      <g>
       <use xlink:href="#me42f21ee05" x="105.132031" y="249.104809" style="fill: #696969; stroke: #696969; stroke-width: 0.8"/>
      </g>
     </g>
     <g id="text_12">
      <!-- 2$\pi$ -->
      <g style="fill: #696969" transform="translate(85.732031 252.904028) scale(0.1 -0.1)">
       <use xlink:href="#DejaVuSans-32" transform="translate(0 0.78125)"/>
       <use xlink:href="#DejaVuSans-Oblique-3c0" transform="translate(63.623047 0.78125)"/>
      </g>
     </g>
    </g>
    <g id="text_13">
     <!-- Surrogate -->
     <g style="fill: #696969" transform="translate(21.14375 268.244149) scale(0.1 -0.1)">
      <defs>
       <path id="DejaVuSans-53" d="M 3425 4513 
L 3425 3897 
Q 3066 4069 2747 4153 
Q 2428 4238 2131 4238 
Q 1616 4238 1336 4038 
Q 1056 3838 1056 3469 
Q 1056 3159 1242 3001 
Q 1428 2844 1947 2747 
L 2328 2669 
Q 3034 2534 3370 2195 
Q 3706 1856 3706 1288 
Q 3706 609 3251 259 
Q 2797 -91 1919 -91 
Q 1588 -91 1214 -16 
Q 841 59 441 206 
L 441 856 
Q 825 641 1194 531 
Q 1563 422 1919 422 
Q 2459 422 2753 634 
Q 3047 847 3047 1241 
Q 3047 1584 2836 1778 
Q 2625 1972 2144 2069 
L 1759 2144 
Q 1053 2284 737 2584 
Q 422 2884 422 3419 
Q 422 4038 858 4394 
Q 1294 4750 2059 4750 
Q 2388 4750 2728 4690 
Q 3069 4631 3425 4513 
z
" transform="scale(0.015625)"/>
       <path id="DejaVuSans-75" d="M 544 1381 
L 544 3500 
L 1119 3500 
L 1119 1403 
Q 1119 906 1312 657 
Q 1506 409 1894 409 
Q 2359 409 2629 706 
Q 2900 1003 2900 1516 
L 2900 3500 
L 3475 3500 
L 3475 0 
L 2900 0 
L 2900 538 
Q 2691 219 2414 64 
Q 2138 -91 1772 -91 
Q 1169 -91 856 284 
Q 544 659 544 1381 
z
M 1991 3584 
L 1991 3584 
z
" transform="scale(0.015625)"/>
      </defs>
      <use xlink:href="#DejaVuSans-53"/>
      <use xlink:href="#DejaVuSans-75" transform="translate(63.476562 0)"/>
      <use xlink:href="#DejaVuSans-72" transform="translate(126.855469 0)"/>
      <use xlink:href="#DejaVuSans-72" transform="translate(166.21875 0)"/>
      <use xlink:href="#DejaVuSans-6f" transform="translate(205.082031 0)"/>
      <use xlink:href="#DejaVuSans-67" transform="translate(266.263672 0)"/>
      <use xlink:href="#DejaVuSans-61" transform="translate(329.740234 0)"/>
      <use xlink:href="#DejaVuSans-74" transform="translate(391.019531 0)"/>
      <use xlink:href="#DejaVuSans-65" transform="translate(430.228516 0)"/>
     </g>
     <!-- 1 -->
     <g style="fill: #696969" transform="translate(42.550781 279.441962) scale(0.1 -0.1)">
      <use xlink:href="#DejaVuSans-31"/>
     </g>
    </g>
   </g>
   <g id="line2d_58">
    <path d="M 125.42294 313.938489 
L 142.700499 280.721892 
L 153.97798 249.104808 
L 153.97798 249.104808 
" clip-path="url(#p6fca1c19be)" style="fill: none; stroke: #ff9896; stroke-linecap: square"/>
   </g>
   <g id="line2d_59">
    <path d="M 153.987489 313.938489 
L 171.122415 280.73759 
L 182.247755 249.104808 
L 182.247755 249.104808 
" clip-path="url(#p6fca1c19be)" style="fill: none; stroke: #9467bd; stroke-linecap: square"/>
   </g>
   <g id="line2d_60">
    <path d="M 182.257264 313.938489 
L 197.414352 280.663736 
L 207.208455 249.104808 
L 207.208455 249.104808 
" clip-path="url(#p6fca1c19be)" style="fill: none; stroke: #d62728; stroke-linecap: square"/>
   </g>
   <g id="line2d_61">
    <path d="M 207.217964 313.938489 
L 226.235639 281.017914 
L 236.476658 249.104808 
L 236.476658 249.104808 
" clip-path="url(#p6fca1c19be)" style="fill: none; stroke: #8c564b; stroke-linecap: square"/>
   </g>
   <g id="line2d_62">
    <path d="M 236.486166 313.938489 
L 252.708244 280.556383 
L 263.862111 249.104808 
L 263.862111 249.104808 
" clip-path="url(#p6fca1c19be)" style="fill: none; stroke: #2ca02c; stroke-linecap: square"/>
   </g>
   <g id="line2d_63">
    <path d="M 263.871619 313.938489 
L 281.196722 280.651054 
L 292.91161 249.104808 
L 292.91161 249.104808 
" clip-path="url(#p6fca1c19be)" style="fill: none; stroke: #c49c94; stroke-linecap: square"/>
   </g>
   <g id="line2d_64">
    <path d="M 292.921119 313.938489 
L 311.006929 280.952407 
L 321.114823 249.104808 
L 321.114823 249.104808 
" clip-path="url(#p6fca1c19be)" style="fill: none; stroke: #98df8a; stroke-linecap: square"/>
   </g>
   <g id="line2d_65">
    <path d="M 321.124332 313.938489 
L 338.145152 280.783612 
L 348.757015 249.104808 
L 348.757015 249.104808 
" clip-path="url(#p6fca1c19be)" style="fill: none; stroke: #c5b0d5; stroke-linecap: square"/>
   </g>
   <g id="line2d_66">
    <path d="M 348.766524 313.938489 
L 366.63363 280.983479 
L 376.20903 249.104808 
L 376.20903 249.104808 
" clip-path="url(#p6fca1c19be)" style="fill: none; stroke: #e377c2; stroke-linecap: square"/>
   </g>
   <g id="line2d_67">
    <path d="M 376.218539 313.938489 
L 396.719593 280.951192 
L 408.928941 249.104808 
L 408.928941 249.104808 
" clip-path="url(#p6fca1c19be)" style="fill: none; stroke: #aec7e8; stroke-linecap: square"/>
   </g>
   <g id="line2d_68">
    <path d="M 408.93845 313.938489 
L 423.486972 280.013252 
L 434.203432 249.104808 
L 434.203432 249.104808 
" clip-path="url(#p6fca1c19be)" style="fill: none; stroke: #f7b6d2; stroke-linecap: square"/>
   </g>
   <g id="line2d_69">
    <path d="M 434.212941 313.938489 
L 456.14983 281.070679 
L 467.607979 249.104808 
L 467.607979 249.104808 
" clip-path="url(#p6fca1c19be)" style="fill: none; stroke: #ff7f0e; stroke-linecap: square"/>
   </g>
   <g id="line2d_70">
    <path d="M 467.617488 313.938489 
L 486.406952 280.955911 
L 497.113903 249.104808 
L 497.113903 249.104808 
" clip-path="url(#p6fca1c19be)" style="fill: none; stroke: #ffbb78; stroke-linecap: square"/>
   </g>
   <g id="line2d_71">
    <path d="M 497.123412 313.938489 
L 519.72592 281.125631 
L 530.489924 249.104808 
L 530.489924 249.104808 
" clip-path="url(#p6fca1c19be)" style="fill: none; stroke: #1f77b4; stroke-linecap: square"/>
   </g>
   <g id="patch_10">
    <path d="M 105.132031 313.938489 
L 105.132031 249.104809 
" style="fill: none; stroke: #696969; stroke-width: 0.8; stroke-linejoin: miter; stroke-linecap: square"/>
   </g>
   <g id="patch_11">
    <path d="M 105.132031 313.938489 
L 551.532031 313.938489 
" style="fill: none; stroke: #696969; stroke-width: 0.8; stroke-linejoin: miter; stroke-linecap: square"/>
   </g>
   <g id="line2d_72">
    <path d="M 162.925797 313.938489 
L 162.925797 249.104809 
" clip-path="url(#p6fca1c19be)" style="fill: none; stroke-dasharray: 5.55,2.4; stroke-dashoffset: 0; stroke: #d3d3d3; stroke-opacity: 0.5; stroke-width: 1.5"/>
   </g>
   <g id="line2d_73">
    <path d="M 228.280039 313.938489 
L 228.280039 249.104809 
" clip-path="url(#p6fca1c19be)" style="fill: none; stroke-dasharray: 5.55,2.4; stroke-dashoffset: 0; stroke: #d3d3d3; stroke-opacity: 0.5; stroke-width: 1.5"/>
   </g>
   <g id="line2d_74">
    <path d="M 293.634282 313.938489 
L 293.634282 249.104809 
" clip-path="url(#p6fca1c19be)" style="fill: none; stroke-dasharray: 5.55,2.4; stroke-dashoffset: 0; stroke: #d3d3d3; stroke-opacity: 0.5; stroke-width: 1.5"/>
   </g>
   <g id="line2d_75">
    <path d="M 358.988524 313.938489 
L 358.988524 249.104809 
" clip-path="url(#p6fca1c19be)" style="fill: none; stroke-dasharray: 5.55,2.4; stroke-dashoffset: 0; stroke: #d3d3d3; stroke-opacity: 0.5; stroke-width: 1.5"/>
   </g>
   <g id="line2d_76">
    <path d="M 424.342767 313.938489 
L 424.342767 249.104809 
" clip-path="url(#p6fca1c19be)" style="fill: none; stroke-dasharray: 5.55,2.4; stroke-dashoffset: 0; stroke: #d3d3d3; stroke-opacity: 0.5; stroke-width: 1.5"/>
   </g>
   <g id="line2d_77">
    <path d="M 489.69701 313.938489 
L 489.69701 249.104809 
" clip-path="url(#p6fca1c19be)" style="fill: none; stroke-dasharray: 5.55,2.4; stroke-dashoffset: 0; stroke: #d3d3d3; stroke-opacity: 0.5; stroke-width: 1.5"/>
   </g>
   <g id="PathCollection_8">
    <defs>
     <path id="m6851400337" d="M 0 1.414214 
C 0.375054 1.414214 0.734797 1.265203 1 1 
C 1.265203 0.734797 1.414214 0.375054 1.414214 0 
C 1.414214 -0.375054 1.265203 -0.734797 1 -1 
C 0.734797 -1.265203 0.375054 -1.414214 0 -1.414214 
C -0.375054 -1.414214 -0.734797 -1.265203 -1 -1 
C -1.265203 -0.734797 -1.414214 -0.375054 -1.414214 0 
C -1.414214 0.375054 -1.265203 0.734797 -1 1 
C -0.734797 1.265203 -0.375054 1.414214 0 1.414214 
z
" style="stroke: #808080"/>
    </defs>
    <g clip-path="url(#p6fca1c19be)">
     <use xlink:href="#m6851400337" x="162.925797" y="296.742197" style="fill: #808080; stroke: #808080"/>
    </g>
   </g>
   <g id="PathCollection_9">
    <g clip-path="url(#p6fca1c19be)">
     <use xlink:href="#m6851400337" x="228.280039" y="274.647146" style="fill: #808080; stroke: #808080"/>
    </g>
   </g>
   <g id="PathCollection_10">
    <g clip-path="url(#p6fca1c19be)">
     <use xlink:href="#m6851400337" x="293.634282" y="312.646638" style="fill: #808080; stroke: #808080"/>
    </g>
   </g>
   <g id="PathCollection_11">
    <g clip-path="url(#p6fca1c19be)">
     <use xlink:href="#m6851400337" x="358.988524" y="295.213017" style="fill: #808080; stroke: #808080"/>
    </g>
   </g>
   <g id="PathCollection_12">
    <g clip-path="url(#p6fca1c19be)">
     <use xlink:href="#m6851400337" x="424.342767" y="277.544965" style="fill: #808080; stroke: #808080"/>
    </g>
   </g>
   <g id="PathCollection_13">
    <g clip-path="url(#p6fca1c19be)">
     <use xlink:href="#m6851400337" x="489.69701" y="271.168628" style="fill: #808080; stroke: #808080"/>
    </g>
   </g>
   <g id="legend_2">
    <g id="patch_12">
     <path d="M 451.494531 267.247309 
L 545.932031 267.247309 
Q 547.532031 267.247309 547.532031 265.647309 
L 547.532031 254.704809 
Q 547.532031 253.104809 545.932031 253.104809 
L 451.494531 253.104809 
Q 449.894531 253.104809 449.894531 254.704809 
L 449.894531 265.647309 
Q 449.894531 267.247309 451.494531 267.247309 
z
" style="fill: #ffffff; opacity: 0.8; stroke: #cccccc; stroke-linejoin: miter"/>
    </g>
    <g id="PathCollection_14">
     <g>
      <use xlink:href="#m6851400337" x="461.094531" y="260.283559" style="fill: #808080; stroke: #808080"/>
     </g>
    </g>
    <g id="text_14">
     <!-- Surrogate events -->
     <g transform="translate(475.494531 262.383559) scale(0.08 -0.08)">
      <use xlink:href="#DejaVuSans-53"/>
      <use xlink:href="#DejaVuSans-75" transform="translate(63.476562 0)"/>
      <use xlink:href="#DejaVuSans-72" transform="translate(126.855469 0)"/>
      <use xlink:href="#DejaVuSans-72" transform="translate(166.21875 0)"/>
      <use xlink:href="#DejaVuSans-6f" transform="translate(205.082031 0)"/>
      <use xlink:href="#DejaVuSans-67" transform="translate(266.263672 0)"/>
      <use xlink:href="#DejaVuSans-61" transform="translate(329.740234 0)"/>
      <use xlink:href="#DejaVuSans-74" transform="translate(391.019531 0)"/>
      <use xlink:href="#DejaVuSans-65" transform="translate(430.228516 0)"/>
      <use xlink:href="#DejaVuSans-20" transform="translate(491.751953 0)"/>
      <use xlink:href="#DejaVuSans-65" transform="translate(523.539062 0)"/>
      <use xlink:href="#DejaVuSans-76" transform="translate(585.0625 0)"/>
      <use xlink:href="#DejaVuSans-65" transform="translate(644.242188 0)"/>
      <use xlink:href="#DejaVuSans-6e" transform="translate(705.765625 0)"/>
      <use xlink:href="#DejaVuSans-74" transform="translate(769.144531 0)"/>
      <use xlink:href="#DejaVuSans-73" transform="translate(808.353516 0)"/>
     </g>
    </g>
   </g>
  </g>
  <g id="axes_4">
   <g id="patch_13">
    <path d="M 105.132031 419.228385 
L 551.532031 419.228385 
L 551.532031 354.394705 
L 105.132031 354.394705 
z
" style="fill: #ffffff"/>
   </g>
   <g id="matplotlib.axis_7">
    <g id="xtick_16">
     <g id="line2d_78">
      <g>
       <use xlink:href="#mcd73079cb1" x="125.42294" y="419.228385" style="stroke: #000000; stroke-width: 0.8"/>
      </g>
     </g>
    </g>
    <g id="xtick_17">
     <g id="line2d_79">
      <g>
       <use xlink:href="#mcd73079cb1" x="220.511319" y="419.228385" style="stroke: #000000; stroke-width: 0.8"/>
      </g>
     </g>
    </g>
    <g id="xtick_18">
     <g id="line2d_80">
      <g>
       <use xlink:href="#mcd73079cb1" x="315.599697" y="419.228385" style="stroke: #000000; stroke-width: 0.8"/>
      </g>
     </g>
    </g>
    <g id="xtick_19">
     <g id="line2d_81">
      <g>
       <use xlink:href="#mcd73079cb1" x="410.688076" y="419.228385" style="stroke: #000000; stroke-width: 0.8"/>
      </g>
     </g>
    </g>
    <g id="xtick_20">
     <g id="line2d_82">
      <g>
       <use xlink:href="#mcd73079cb1" x="505.776454" y="419.228385" style="stroke: #000000; stroke-width: 0.8"/>
      </g>
     </g>
    </g>
   </g>
   <g id="matplotlib.axis_8">
    <g id="ytick_9">
     <g id="line2d_83">
      <g>
       <use xlink:href="#me42f21ee05" x="105.132031" y="419.228385" style="fill: #696969; stroke: #696969; stroke-width: 0.8"/>
      </g>
     </g>
     <g id="text_15">
      <!-- 0 -->
      <g style="fill: #696969" transform="translate(91.769531 423.027604) scale(0.1 -0.1)">
       <use xlink:href="#DejaVuSans-30"/>
      </g>
     </g>
    </g>
    <g id="ytick_10">
     <g id="line2d_84">
      <g>
       <use xlink:href="#me42f21ee05" x="105.132031" y="386.811545" style="fill: #696969; stroke: #696969; stroke-width: 0.8"/>
      </g>
     </g>
     <g id="text_16">
      <!-- $\pi$ -->
      <g style="fill: #696969" transform="translate(92.032031 390.610764) scale(0.1 -0.1)">
       <use xlink:href="#DejaVuSans-Oblique-3c0" transform="translate(0 0.3125)"/>
      </g>
     </g>
    </g>
    <g id="ytick_11">
     <g id="line2d_85">
      <g>
       <use xlink:href="#me42f21ee05" x="105.132031" y="354.394705" style="fill: #696969; stroke: #696969; stroke-width: 0.8"/>
      </g>
     </g>
     <g id="text_17">
      <!-- 2$\pi$ -->
      <g style="fill: #696969" transform="translate(85.732031 358.193924) scale(0.1 -0.1)">
       <use xlink:href="#DejaVuSans-32" transform="translate(0 0.78125)"/>
       <use xlink:href="#DejaVuSans-Oblique-3c0" transform="translate(63.623047 0.78125)"/>
      </g>
     </g>
    </g>
    <g id="text_18">
     <!-- Surrogate -->
     <g style="fill: #696969" transform="translate(21.14375 373.534045) scale(0.1 -0.1)">
      <use xlink:href="#DejaVuSans-53"/>
      <use xlink:href="#DejaVuSans-75" transform="translate(63.476562 0)"/>
      <use xlink:href="#DejaVuSans-72" transform="translate(126.855469 0)"/>
      <use xlink:href="#DejaVuSans-72" transform="translate(166.21875 0)"/>
      <use xlink:href="#DejaVuSans-6f" transform="translate(205.082031 0)"/>
      <use xlink:href="#DejaVuSans-67" transform="translate(266.263672 0)"/>
      <use xlink:href="#DejaVuSans-61" transform="translate(329.740234 0)"/>
      <use xlink:href="#DejaVuSans-74" transform="translate(391.019531 0)"/>
      <use xlink:href="#DejaVuSans-65" transform="translate(430.228516 0)"/>
     </g>
     <!-- 2 -->
     <g style="fill: #696969" transform="translate(42.550781 384.731858) scale(0.1 -0.1)">
      <use xlink:href="#DejaVuSans-32"/>
     </g>
    </g>
   </g>
   <g id="line2d_86">
    <path d="M 125.42294 419.228385 
L 142.44376 386.073508 
L 153.055623 354.394704 
L 153.055623 354.394704 
" clip-path="url(#pfdc59e99ff)" style="fill: none; stroke: #c5b0d5; stroke-linecap: square"/>
   </g>
   <g id="line2d_87">
    <path d="M 153.065132 419.228385 
L 170.390235 385.94095 
L 182.105123 354.394704 
L 182.105123 354.394704 
" clip-path="url(#pfdc59e99ff)" style="fill: none; stroke: #c49c94; stroke-linecap: square"/>
   </g>
   <g id="line2d_88">
    <path d="M 182.114632 419.228385 
L 204.717139 386.415527 
L 215.481144 354.394704 
L 215.481144 354.394704 
" clip-path="url(#pfdc59e99ff)" style="fill: none; stroke: #1f77b4; stroke-linecap: square"/>
   </g>
   <g id="line2d_89">
    <path d="M 215.490652 419.228385 
L 233.357759 386.273375 
L 242.933159 354.394704 
L 242.933159 354.394704 
" clip-path="url(#pfdc59e99ff)" style="fill: none; stroke: #e377c2; stroke-linecap: square"/>
   </g>
   <g id="line2d_90">
    <path d="M 242.942667 419.228385 
L 261.028477 386.242303 
L 271.136372 354.394704 
L 271.136372 354.394704 
" clip-path="url(#pfdc59e99ff)" style="fill: none; stroke: #98df8a; stroke-linecap: square"/>
   </g>
   <g id="line2d_91">
    <path d="M 271.14588 419.228385 
L 288.280806 386.027486 
L 299.406147 354.394704 
L 299.406147 354.394704 
" clip-path="url(#pfdc59e99ff)" style="fill: none; stroke: #9467bd; stroke-linecap: square"/>
   </g>
   <g id="line2d_92">
    <path d="M 299.415655 419.228385 
L 321.352544 386.360575 
L 332.810694 354.394704 
L 332.810694 354.394704 
" clip-path="url(#pfdc59e99ff)" style="fill: none; stroke: #ff7f0e; stroke-linecap: square"/>
   </g>
   <g id="line2d_93">
    <path d="M 332.820203 419.228385 
L 353.321257 386.241088 
L 365.530605 354.394704 
L 365.530605 354.394704 
" clip-path="url(#pfdc59e99ff)" style="fill: none; stroke: #aec7e8; stroke-linecap: square"/>
   </g>
   <g id="line2d_94">
    <path d="M 365.540114 419.228385 
L 380.088636 385.303148 
L 390.805096 354.394704 
L 390.805096 354.394704 
" clip-path="url(#pfdc59e99ff)" style="fill: none; stroke: #f7b6d2; stroke-linecap: square"/>
   </g>
   <g id="line2d_95">
    <path d="M 390.814605 419.228385 
L 407.036682 385.846279 
L 418.190549 354.394704 
L 418.190549 354.394704 
" clip-path="url(#pfdc59e99ff)" style="fill: none; stroke: #2ca02c; stroke-linecap: square"/>
   </g>
   <g id="line2d_96">
    <path d="M 418.200058 419.228385 
L 435.477616 386.011788 
L 446.755098 354.394704 
L 446.755098 354.394704 
" clip-path="url(#pfdc59e99ff)" style="fill: none; stroke: #ff9896; stroke-linecap: square"/>
   </g>
   <g id="line2d_97">
    <path d="M 446.764607 419.228385 
L 465.782282 386.30781 
L 476.023301 354.394704 
L 476.023301 354.394704 
" clip-path="url(#pfdc59e99ff)" style="fill: none; stroke: #8c564b; stroke-linecap: square"/>
   </g>
   <g id="line2d_98">
    <path d="M 476.03281 419.228385 
L 494.822273 386.245807 
L 505.529225 354.394704 
L 505.529225 354.394704 
" clip-path="url(#pfdc59e99ff)" style="fill: none; stroke: #ffbb78; stroke-linecap: square"/>
   </g>
   <g id="line2d_99">
    <path d="M 505.538733 419.228385 
L 520.695821 385.953632 
L 530.489924 354.394704 
L 530.489924 354.394704 
" clip-path="url(#pfdc59e99ff)" style="fill: none; stroke: #d62728; stroke-linecap: square"/>
   </g>
   <g id="patch_14">
    <path d="M 105.132031 419.228385 
L 105.132031 354.394705 
" style="fill: none; stroke: #696969; stroke-width: 0.8; stroke-linejoin: miter; stroke-linecap: square"/>
   </g>
   <g id="patch_15">
    <path d="M 105.132031 419.228385 
L 551.532031 419.228385 
" style="fill: none; stroke: #696969; stroke-width: 0.8; stroke-linejoin: miter; stroke-linecap: square"/>
   </g>
   <g id="line2d_100">
    <path d="M 162.925797 419.228385 
L 162.925797 354.394705 
" clip-path="url(#pfdc59e99ff)" style="fill: none; stroke-dasharray: 5.55,2.4; stroke-dashoffset: 0; stroke: #d3d3d3; stroke-opacity: 0.5; stroke-width: 1.5"/>
   </g>
   <g id="line2d_101">
    <path d="M 228.280039 419.228385 
L 228.280039 354.394705 
" clip-path="url(#pfdc59e99ff)" style="fill: none; stroke-dasharray: 5.55,2.4; stroke-dashoffset: 0; stroke: #d3d3d3; stroke-opacity: 0.5; stroke-width: 1.5"/>
   </g>
   <g id="line2d_102">
    <path d="M 293.634282 419.228385 
L 293.634282 354.394705 
" clip-path="url(#pfdc59e99ff)" style="fill: none; stroke-dasharray: 5.55,2.4; stroke-dashoffset: 0; stroke: #d3d3d3; stroke-opacity: 0.5; stroke-width: 1.5"/>
   </g>
   <g id="line2d_103">
    <path d="M 358.988524 419.228385 
L 358.988524 354.394705 
" clip-path="url(#pfdc59e99ff)" style="fill: none; stroke-dasharray: 5.55,2.4; stroke-dashoffset: 0; stroke: #d3d3d3; stroke-opacity: 0.5; stroke-width: 1.5"/>
   </g>
   <g id="line2d_104">
    <path d="M 424.342767 419.228385 
L 424.342767 354.394705 
" clip-path="url(#pfdc59e99ff)" style="fill: none; stroke-dasharray: 5.55,2.4; stroke-dashoffset: 0; stroke: #d3d3d3; stroke-opacity: 0.5; stroke-width: 1.5"/>
   </g>
   <g id="line2d_105">
    <path d="M 489.69701 419.228385 
L 489.69701 354.394705 
" clip-path="url(#pfdc59e99ff)" style="fill: none; stroke-dasharray: 5.55,2.4; stroke-dashoffset: 0; stroke: #d3d3d3; stroke-opacity: 0.5; stroke-width: 1.5"/>
   </g>
   <g id="PathCollection_15">
    <g clip-path="url(#pfdc59e99ff)">
     <use xlink:href="#m6851400337" x="162.925797" y="400.416823" style="fill: #808080; stroke: #808080"/>
    </g>
   </g>
   <g id="PathCollection_16">
    <g clip-path="url(#pfdc59e99ff)">
     <use xlink:href="#m6851400337" x="228.280039" y="395.799772" style="fill: #808080; stroke: #808080"/>
    </g>
   </g>
   <g id="PathCollection_17">
    <g clip-path="url(#pfdc59e99ff)">
     <use xlink:href="#m6851400337" x="293.634282" y="370.8059" style="fill: #808080; stroke: #808080"/>
    </g>
   </g>
   <g id="PathCollection_18">
    <g clip-path="url(#pfdc59e99ff)">
     <use xlink:href="#m6851400337" x="358.988524" y="371.458813" style="fill: #808080; stroke: #808080"/>
    </g>
   </g>
   <g id="PathCollection_19">
    <g clip-path="url(#pfdc59e99ff)">
     <use xlink:href="#m6851400337" x="424.342767" y="407.503146" style="fill: #808080; stroke: #808080"/>
    </g>
   </g>
   <g id="PathCollection_20">
    <g clip-path="url(#pfdc59e99ff)">
     <use xlink:href="#m6851400337" x="489.69701" y="395.400763" style="fill: #808080; stroke: #808080"/>
    </g>
   </g>
  </g>
  <g id="axes_5">
   <g id="patch_16">
    <path d="M 105.132031 524.518281 
L 551.532031 524.518281 
L 551.532031 459.684601 
L 105.132031 459.684601 
z
" style="fill: #ffffff"/>
   </g>
   <g id="matplotlib.axis_9">
    <g id="xtick_21">
     <g id="line2d_106">
      <g>
       <use xlink:href="#mcd73079cb1" x="125.42294" y="524.518281" style="stroke: #000000; stroke-width: 0.8"/>
      </g>
     </g>
     <g id="text_19">
      <!-- 0 -->
      <g transform="translate(122.24169 539.116719) scale(0.1 -0.1)">
       <use xlink:href="#DejaVuSans-30"/>
      </g>
     </g>
    </g>
    <g id="xtick_22">
     <g id="line2d_107">
      <g>
       <use xlink:href="#mcd73079cb1" x="220.511319" y="524.518281" style="stroke: #000000; stroke-width: 0.8"/>
      </g>
     </g>
     <g id="text_20">
      <!-- 10000 -->
      <g transform="translate(204.605069 539.116719) scale(0.1 -0.1)">
       <use xlink:href="#DejaVuSans-31"/>
       <use xlink:href="#DejaVuSans-30" transform="translate(63.623047 0)"/>
       <use xlink:href="#DejaVuSans-30" transform="translate(127.246094 0)"/>
       <use xlink:href="#DejaVuSans-30" transform="translate(190.869141 0)"/>
       <use xlink:href="#DejaVuSans-30" transform="translate(254.492188 0)"/>
      </g>
     </g>
    </g>
    <g id="xtick_23">
     <g id="line2d_108">
      <g>
       <use xlink:href="#mcd73079cb1" x="315.599697" y="524.518281" style="stroke: #000000; stroke-width: 0.8"/>
      </g>
     </g>
     <g id="text_21">
      <!-- 20000 -->
      <g transform="translate(299.693447 539.116719) scale(0.1 -0.1)">
       <use xlink:href="#DejaVuSans-32"/>
       <use xlink:href="#DejaVuSans-30" transform="translate(63.623047 0)"/>
       <use xlink:href="#DejaVuSans-30" transform="translate(127.246094 0)"/>
       <use xlink:href="#DejaVuSans-30" transform="translate(190.869141 0)"/>
       <use xlink:href="#DejaVuSans-30" transform="translate(254.492188 0)"/>
      </g>
     </g>
    </g>
    <g id="xtick_24">
     <g id="line2d_109">
      <g>
       <use xlink:href="#mcd73079cb1" x="410.688076" y="524.518281" style="stroke: #000000; stroke-width: 0.8"/>
      </g>
     </g>
     <g id="text_22">
      <!-- 30000 -->
      <g transform="translate(394.781826 539.116719) scale(0.1 -0.1)">
       <defs>
        <path id="DejaVuSans-33" d="M 2597 2516 
Q 3050 2419 3304 2112 
Q 3559 1806 3559 1356 
Q 3559 666 3084 287 
Q 2609 -91 1734 -91 
Q 1441 -91 1130 -33 
Q 819 25 488 141 
L 488 750 
Q 750 597 1062 519 
Q 1375 441 1716 441 
Q 2309 441 2620 675 
Q 2931 909 2931 1356 
Q 2931 1769 2642 2001 
Q 2353 2234 1838 2234 
L 1294 2234 
L 1294 2753 
L 1863 2753 
Q 2328 2753 2575 2939 
Q 2822 3125 2822 3475 
Q 2822 3834 2567 4026 
Q 2313 4219 1838 4219 
Q 1578 4219 1281 4162 
Q 984 4106 628 3988 
L 628 4550 
Q 988 4650 1302 4700 
Q 1616 4750 1894 4750 
Q 2613 4750 3031 4423 
Q 3450 4097 3450 3541 
Q 3450 3153 3228 2886 
Q 3006 2619 2597 2516 
z
" transform="scale(0.015625)"/>
       </defs>
       <use xlink:href="#DejaVuSans-33"/>
       <use xlink:href="#DejaVuSans-30" transform="translate(63.623047 0)"/>
       <use xlink:href="#DejaVuSans-30" transform="translate(127.246094 0)"/>
       <use xlink:href="#DejaVuSans-30" transform="translate(190.869141 0)"/>
       <use xlink:href="#DejaVuSans-30" transform="translate(254.492188 0)"/>
      </g>
     </g>
    </g>
    <g id="xtick_25">
     <g id="line2d_110">
      <g>
       <use xlink:href="#mcd73079cb1" x="505.776454" y="524.518281" style="stroke: #000000; stroke-width: 0.8"/>
      </g>
     </g>
     <g id="text_23">
      <!-- 40000 -->
      <g transform="translate(489.870204 539.116719) scale(0.1 -0.1)">
       <defs>
        <path id="DejaVuSans-34" d="M 2419 4116 
L 825 1625 
L 2419 1625 
L 2419 4116 
z
M 2253 4666 
L 3047 4666 
L 3047 1625 
L 3713 1625 
L 3713 1100 
L 3047 1100 
L 3047 0 
L 2419 0 
L 2419 1100 
L 313 1100 
L 313 1709 
L 2253 4666 
z
" transform="scale(0.015625)"/>
       </defs>
       <use xlink:href="#DejaVuSans-34"/>
       <use xlink:href="#DejaVuSans-30" transform="translate(63.623047 0)"/>
       <use xlink:href="#DejaVuSans-30" transform="translate(127.246094 0)"/>
       <use xlink:href="#DejaVuSans-30" transform="translate(190.869141 0)"/>
       <use xlink:href="#DejaVuSans-30" transform="translate(254.492188 0)"/>
      </g>
     </g>
    </g>
    <g id="text_24">
     <!-- Samples -->
     <g transform="translate(306.978906 552.794844) scale(0.1 -0.1)">
      <defs>
       <path id="DejaVuSans-6d" d="M 3328 2828 
Q 3544 3216 3844 3400 
Q 4144 3584 4550 3584 
Q 5097 3584 5394 3201 
Q 5691 2819 5691 2113 
L 5691 0 
L 5113 0 
L 5113 2094 
Q 5113 2597 4934 2840 
Q 4756 3084 4391 3084 
Q 3944 3084 3684 2787 
Q 3425 2491 3425 1978 
L 3425 0 
L 2847 0 
L 2847 2094 
Q 2847 2600 2669 2842 
Q 2491 3084 2119 3084 
Q 1678 3084 1418 2786 
Q 1159 2488 1159 1978 
L 1159 0 
L 581 0 
L 581 3500 
L 1159 3500 
L 1159 2956 
Q 1356 3278 1631 3431 
Q 1906 3584 2284 3584 
Q 2666 3584 2933 3390 
Q 3200 3197 3328 2828 
z
" transform="scale(0.015625)"/>
      </defs>
      <use xlink:href="#DejaVuSans-53"/>
      <use xlink:href="#DejaVuSans-61" transform="translate(63.476562 0)"/>
      <use xlink:href="#DejaVuSans-6d" transform="translate(124.755859 0)"/>
      <use xlink:href="#DejaVuSans-70" transform="translate(222.167969 0)"/>
      <use xlink:href="#DejaVuSans-6c" transform="translate(285.644531 0)"/>
      <use xlink:href="#DejaVuSans-65" transform="translate(313.427734 0)"/>
      <use xlink:href="#DejaVuSans-73" transform="translate(374.951172 0)"/>
     </g>
    </g>
   </g>
   <g id="matplotlib.axis_10">
    <g id="ytick_12">
     <g id="line2d_111">
      <g>
       <use xlink:href="#me42f21ee05" x="105.132031" y="524.518281" style="fill: #696969; stroke: #696969; stroke-width: 0.8"/>
      </g>
     </g>
     <g id="text_25">
      <!-- 0 -->
      <g style="fill: #696969" transform="translate(91.769531 528.3175) scale(0.1 -0.1)">
       <use xlink:href="#DejaVuSans-30"/>
      </g>
     </g>
    </g>
    <g id="ytick_13">
     <g id="line2d_112">
      <g>
       <use xlink:href="#me42f21ee05" x="105.132031" y="492.101441" style="fill: #696969; stroke: #696969; stroke-width: 0.8"/>
      </g>
     </g>
     <g id="text_26">
      <!-- $\pi$ -->
      <g style="fill: #696969" transform="translate(92.032031 495.90066) scale(0.1 -0.1)">
       <use xlink:href="#DejaVuSans-Oblique-3c0" transform="translate(0 0.3125)"/>
      </g>
     </g>
    </g>
    <g id="ytick_14">
     <g id="line2d_113">
      <g>
       <use xlink:href="#me42f21ee05" x="105.132031" y="459.684601" style="fill: #696969; stroke: #696969; stroke-width: 0.8"/>
      </g>
     </g>
     <g id="text_27">
      <!-- 2$\pi$ -->
      <g style="fill: #696969" transform="translate(85.732031 463.48382) scale(0.1 -0.1)">
       <use xlink:href="#DejaVuSans-32" transform="translate(0 0.78125)"/>
       <use xlink:href="#DejaVuSans-Oblique-3c0" transform="translate(63.623047 0.78125)"/>
      </g>
     </g>
    </g>
    <g id="text_28">
     <!-- Surrogate -->
     <g style="fill: #696969" transform="translate(21.14375 478.823941) scale(0.1 -0.1)">
      <use xlink:href="#DejaVuSans-53"/>
      <use xlink:href="#DejaVuSans-75" transform="translate(63.476562 0)"/>
      <use xlink:href="#DejaVuSans-72" transform="translate(126.855469 0)"/>
      <use xlink:href="#DejaVuSans-72" transform="translate(166.21875 0)"/>
      <use xlink:href="#DejaVuSans-6f" transform="translate(205.082031 0)"/>
      <use xlink:href="#DejaVuSans-67" transform="translate(266.263672 0)"/>
      <use xlink:href="#DejaVuSans-61" transform="translate(329.740234 0)"/>
      <use xlink:href="#DejaVuSans-74" transform="translate(391.019531 0)"/>
      <use xlink:href="#DejaVuSans-65" transform="translate(430.228516 0)"/>
     </g>
     <!-- 3 -->
     <g style="fill: #696969" transform="translate(42.550781 490.021754) scale(0.1 -0.1)">
      <use xlink:href="#DejaVuSans-33"/>
     </g>
    </g>
   </g>
   <g id="line2d_114">
    <path d="M 125.42294 524.518281 
L 142.44376 491.363404 
L 153.055623 459.6846 
L 153.055623 459.6846 
" clip-path="url(#pe71a4dd9db)" style="fill: none; stroke: #c5b0d5; stroke-linecap: square"/>
   </g>
   <g id="line2d_115">
    <path d="M 153.065132 524.518281 
L 170.34269 491.301684 
L 181.620172 459.6846 
L 181.620172 459.6846 
" clip-path="url(#pe71a4dd9db)" style="fill: none; stroke: #ff9896; stroke-linecap: square"/>
   </g>
   <g id="line2d_116">
    <path d="M 181.629681 524.518281 
L 200.647357 491.597706 
L 210.888375 459.6846 
L 210.888375 459.6846 
" clip-path="url(#pe71a4dd9db)" style="fill: none; stroke: #8c564b; stroke-linecap: square"/>
   </g>
   <g id="line2d_117">
    <path d="M 210.897884 524.518281 
L 225.446406 490.593044 
L 236.162866 459.6846 
L 236.162866 459.6846 
" clip-path="url(#pe71a4dd9db)" style="fill: none; stroke: #f7b6d2; stroke-linecap: square"/>
   </g>
   <g id="line2d_118">
    <path d="M 236.172375 524.518281 
L 258.109264 491.650471 
L 269.567413 459.6846 
L 269.567413 459.6846 
" clip-path="url(#pe71a4dd9db)" style="fill: none; stroke: #ff7f0e; stroke-linecap: square"/>
   </g>
   <g id="line2d_119">
    <path d="M 269.576922 524.518281 
L 284.73401 491.243528 
L 294.528113 459.6846 
L 294.528113 459.6846 
" clip-path="url(#pe71a4dd9db)" style="fill: none; stroke: #d62728; stroke-linecap: square"/>
   </g>
   <g id="line2d_120">
    <path d="M 294.537622 524.518281 
L 311.672547 491.317382 
L 322.797888 459.6846 
L 322.797888 459.6846 
" clip-path="url(#pe71a4dd9db)" style="fill: none; stroke: #9467bd; stroke-linecap: square"/>
   </g>
   <g id="line2d_121">
    <path d="M 322.807396 524.518281 
L 340.132499 491.230846 
L 351.847387 459.6846 
L 351.847387 459.6846 
" clip-path="url(#pe71a4dd9db)" style="fill: none; stroke: #c49c94; stroke-linecap: square"/>
   </g>
   <g id="line2d_122">
    <path d="M 351.856896 524.518281 
L 370.64636 491.535703 
L 381.353311 459.6846 
L 381.353311 459.6846 
" clip-path="url(#pe71a4dd9db)" style="fill: none; stroke: #ffbb78; stroke-linecap: square"/>
   </g>
   <g id="line2d_123">
    <path d="M 381.36282 524.518281 
L 399.229926 491.563271 
L 408.805326 459.6846 
L 408.805326 459.6846 
" clip-path="url(#pe71a4dd9db)" style="fill: none; stroke: #e377c2; stroke-linecap: square"/>
   </g>
   <g id="line2d_124">
    <path d="M 408.814835 524.518281 
L 426.900644 491.5322 
L 437.008539 459.6846 
L 437.008539 459.6846 
" clip-path="url(#pe71a4dd9db)" style="fill: none; stroke: #98df8a; stroke-linecap: square"/>
   </g>
   <g id="line2d_125">
    <path d="M 437.018048 524.518281 
L 457.519102 491.530984 
L 469.72845 459.6846 
L 469.72845 459.6846 
" clip-path="url(#pe71a4dd9db)" style="fill: none; stroke: #aec7e8; stroke-linecap: square"/>
   </g>
   <g id="line2d_126">
    <path d="M 469.737959 524.518281 
L 492.340467 491.705423 
L 503.104471 459.6846 
L 503.104471 459.6846 
" clip-path="url(#pe71a4dd9db)" style="fill: none; stroke: #1f77b4; stroke-linecap: square"/>
   </g>
   <g id="line2d_127">
    <path d="M 503.11398 524.518281 
L 519.336057 491.136175 
L 530.489924 459.6846 
L 530.489924 459.6846 
" clip-path="url(#pe71a4dd9db)" style="fill: none; stroke: #2ca02c; stroke-linecap: square"/>
   </g>
   <g id="patch_17">
    <path d="M 105.132031 524.518281 
L 105.132031 459.684601 
" style="fill: none; stroke: #696969; stroke-width: 0.8; stroke-linejoin: miter; stroke-linecap: square"/>
   </g>
   <g id="patch_18">
    <path d="M 105.132031 524.518281 
L 551.532031 524.518281 
" style="fill: none; stroke: #696969; stroke-width: 0.8; stroke-linejoin: miter; stroke-linecap: square"/>
   </g>
   <g id="line2d_128">
    <path d="M 162.925797 524.518281 
L 162.925797 459.684601 
" clip-path="url(#pe71a4dd9db)" style="fill: none; stroke-dasharray: 5.55,2.4; stroke-dashoffset: 0; stroke: #d3d3d3; stroke-opacity: 0.5; stroke-width: 1.5"/>
   </g>
   <g id="line2d_129">
    <path d="M 228.280039 524.518281 
L 228.280039 459.684601 
" clip-path="url(#pe71a4dd9db)" style="fill: none; stroke-dasharray: 5.55,2.4; stroke-dashoffset: 0; stroke: #d3d3d3; stroke-opacity: 0.5; stroke-width: 1.5"/>
   </g>
   <g id="line2d_130">
    <path d="M 293.634282 524.518281 
L 293.634282 459.684601 
" clip-path="url(#pe71a4dd9db)" style="fill: none; stroke-dasharray: 5.55,2.4; stroke-dashoffset: 0; stroke: #d3d3d3; stroke-opacity: 0.5; stroke-width: 1.5"/>
   </g>
   <g id="line2d_131">
    <path d="M 358.988524 524.518281 
L 358.988524 459.684601 
" clip-path="url(#pe71a4dd9db)" style="fill: none; stroke-dasharray: 5.55,2.4; stroke-dashoffset: 0; stroke: #d3d3d3; stroke-opacity: 0.5; stroke-width: 1.5"/>
   </g>
   <g id="line2d_132">
    <path d="M 424.342767 524.518281 
L 424.342767 459.684601 
" clip-path="url(#pe71a4dd9db)" style="fill: none; stroke-dasharray: 5.55,2.4; stroke-dashoffset: 0; stroke: #d3d3d3; stroke-opacity: 0.5; stroke-width: 1.5"/>
   </g>
   <g id="line2d_133">
    <path d="M 489.69701 524.518281 
L 489.69701 459.684601 
" clip-path="url(#pe71a4dd9db)" style="fill: none; stroke-dasharray: 5.55,2.4; stroke-dashoffset: 0; stroke: #d3d3d3; stroke-opacity: 0.5; stroke-width: 1.5"/>
   </g>
   <g id="PathCollection_21">
    <g clip-path="url(#pe71a4dd9db)">
     <use xlink:href="#m6851400337" x="162.925797" y="505.696186" style="fill: #808080; stroke: #808080"/>
    </g>
   </g>
   <g id="PathCollection_22">
    <g clip-path="url(#pe71a4dd9db)">
     <use xlink:href="#m6851400337" x="228.280039" y="482.420271" style="fill: #808080; stroke: #808080"/>
    </g>
   </g>
   <g id="PathCollection_23">
    <g clip-path="url(#pe71a4dd9db)">
     <use xlink:href="#m6851400337" x="293.634282" y="462.564737" style="fill: #808080; stroke: #808080"/>
    </g>
   </g>
   <g id="PathCollection_24">
    <g clip-path="url(#pe71a4dd9db)">
     <use xlink:href="#m6851400337" x="358.988524" y="512.082153" style="fill: #808080; stroke: #808080"/>
    </g>
   </g>
   <g id="PathCollection_25">
    <g clip-path="url(#pe71a4dd9db)">
     <use xlink:href="#m6851400337" x="424.342767" y="496.390385" style="fill: #808080; stroke: #808080"/>
    </g>
   </g>
   <g id="PathCollection_26">
    <g clip-path="url(#pe71a4dd9db)">
     <use xlink:href="#m6851400337" x="489.69701" y="495.710937" style="fill: #808080; stroke: #808080"/>
    </g>
   </g>
  </g>
 </g>
 <defs>
  <clipPath id="pac4002c36b">
   <rect x="105.132031" y="25.558281" width="446.4" height="77.800416"/>
  </clipPath>
  <clipPath id="pad40e2479d">
   <rect x="105.132031" y="143.814913" width="446.4" height="64.83368"/>
  </clipPath>
  <clipPath id="p6fca1c19be">
   <rect x="105.132031" y="249.104809" width="446.4" height="64.83368"/>
  </clipPath>
  <clipPath id="pfdc59e99ff">
   <rect x="105.132031" y="354.394705" width="446.4" height="64.83368"/>
  </clipPath>
  <clipPath id="pe71a4dd9db">
   <rect x="105.132031" y="459.684601" width="446.4" height="64.83368"/>
  </clipPath>
 </defs>
</svg>
