<?xml version="1.0" encoding="utf-8" standalone="no"?>
<!DOCTYPE svg PUBLIC "-//W3C//DTD SVG 1.1//EN"
  "http://www.w3.org/Graphics/SVG/1.1/DTD/svg11.dtd">
<svg xmlns:xlink="http://www.w3.org/1999/xlink" width="1144.588438pt" height="424.642557pt" viewBox="0 0 1144.588438 424.642557" xmlns="http://www.w3.org/2000/svg" version="1.1">
 <metadata>
  <rdf:RDF xmlns:dc="http://purl.org/dc/elements/1.1/" xmlns:cc="http://creativecommons.org/ns#" xmlns:rdf="http://www.w3.org/1999/02/22-rdf-syntax-ns#">
   <cc:Work>
    <dc:type rdf:resource="http://purl.org/dc/dcmitype/StillImage"/>
    <dc:date>2026-02-16T14:26:23.181021</dc:date>
    <dc:format>image/svg+xml</dc:format>
    <dc:creator>
     <cc:Agent>
      <dc:title>Matplotlib v3.10.0, https://matplotlib.org/</dc:title>
     </cc:Agent>
    </dc:creator>
   </cc:Work>
  </rdf:RDF>
 </metadata>
 <defs>
  <style type="text/css">*{stroke-linejoin: round; stroke-linecap: butt}</style>
 </defs>
 <g id="figure_1">
  <g id="patch_1">
   <path d="M 0 424.642557 
L 1144.588438 424.642557 
L 1144.588438 0 
L 0 0 
z
" style="fill: #ffffff"/>
  </g>
  <g id="axes_1">
   <g id="patch_2">
    <path d="M 46.965625 345.798606 
L 971.330625 345.798606 
L 971.330625 7.2 
L 46.965625 7.2 
z
" style="fill: #ffffff"/>
   </g>
   <g id="patch_3">
    <path d="M 88.982216 345.798606 
L 95.253349 345.798606 
L 95.253349 51.777408 
L 88.982216 51.777408 
z
" clip-path="url(#p414963813b)" style="fill: #a9dca3"/>
   </g>
   <g id="patch_4">
    <path d="M 120.337881 345.798606 
L 126.609014 345.798606 
L 126.609014 171.915102 
L 120.337881 171.915102 
z
" clip-path="url(#p414963813b)" style="fill: #a9dca3"/>
   </g>
   <g id="patch_5">
    <path d="M 151.693546 345.798606 
L 157.964679 345.798606 
L 157.964679 77.069554 
L 151.693546 77.069554 
z
" clip-path="url(#p414963813b)" style="fill: #a9dca3"/>
   </g>
   <g id="patch_6">
    <path d="M 183.04921 345.798606 
L 189.320343 345.798606 
L 189.320343 80.231072 
L 183.04921 80.231072 
z
" clip-path="url(#p414963813b)" style="fill: #a9dca3"/>
   </g>
   <g id="patch_7">
    <path d="M 214.404875 345.798606 
L 220.676008 345.798606 
L 220.676008 70.746517 
L 214.404875 70.746517 
z
" clip-path="url(#p414963813b)" style="fill: #a9dca3"/>
   </g>
   <g id="patch_8">
    <path d="M 245.76054 345.798606 
L 252.031673 345.798606 
L 252.031673 54.938926 
L 245.76054 54.938926 
z
" clip-path="url(#p414963813b)" style="fill: #a9dca3"/>
   </g>
   <g id="patch_9">
    <path d="M 277.116205 345.798606 
L 283.387338 345.798606 
L 283.387338 42.292853 
L 277.116205 42.292853 
z
" clip-path="url(#p414963813b)" style="fill: #a9dca3"/>
   </g>
   <g id="patch_10">
    <path d="M 308.47187 345.798606 
L 314.743003 345.798606 
L 314.743003 140.299919 
L 308.47187 140.299919 
z
" clip-path="url(#p414963813b)" style="fill: #a9dca3"/>
   </g>
   <g id="patch_11">
    <path d="M 339.827535 345.798606 
L 346.098668 345.798606 
L 346.098668 137.138401 
L 339.827535 137.138401 
z
" clip-path="url(#p414963813b)" style="fill: #a9dca3"/>
   </g>
   <g id="patch_12">
    <path d="M 371.1832 345.798606 
L 377.454333 345.798606 
L 377.454333 48.615889 
L 371.1832 48.615889 
z
" clip-path="url(#p414963813b)" style="fill: #a9dca3"/>
   </g>
   <g id="patch_13">
    <path d="M 402.538864 345.798606 
L 408.809997 345.798606 
L 408.809997 42.292853 
L 402.538864 42.292853 
z
" clip-path="url(#p414963813b)" style="fill: #a9dca3"/>
   </g>
   <g id="patch_14">
    <path d="M 433.894529 345.798606 
L 440.165662 345.798606 
L 440.165662 51.777408 
L 433.894529 51.777408 
z
" clip-path="url(#p414963813b)" style="fill: #a9dca3"/>
   </g>
   <g id="patch_15">
    <path d="M 465.250194 345.798606 
L 471.521327 345.798606 
L 471.521327 61.261962 
L 465.250194 61.261962 
z
" clip-path="url(#p414963813b)" style="fill: #a9dca3"/>
   </g>
   <g id="patch_16">
    <path d="M 496.605859 345.798606 
L 502.876992 345.798606 
L 502.876992 42.292853 
L 496.605859 42.292853 
z
" clip-path="url(#p414963813b)" style="fill: #a9dca3"/>
   </g>
   <g id="patch_17">
    <path d="M 527.961524 345.798606 
L 534.232657 345.798606 
L 534.232657 67.584999 
L 527.961524 67.584999 
z
" clip-path="url(#p414963813b)" style="fill: #a9dca3"/>
   </g>
   <g id="patch_18">
    <path d="M 559.317189 345.798606 
L 565.588322 345.798606 
L 565.588322 32.808298 
L 559.317189 32.808298 
z
" clip-path="url(#p414963813b)" style="fill: #a9dca3"/>
   </g>
   <g id="patch_19">
    <path d="M 590.672854 345.798606 
L 596.943987 345.798606 
L 596.943987 39.131334 
L 590.672854 39.131334 
z
" clip-path="url(#p414963813b)" style="fill: #a9dca3"/>
   </g>
   <g id="patch_20">
    <path d="M 622.028518 345.798606 
L 628.299651 345.798606 
L 628.299651 146.622955 
L 622.028518 146.622955 
z
" clip-path="url(#p414963813b)" style="fill: #a9dca3"/>
   </g>
   <g id="patch_21">
    <path d="M 653.384183 345.798606 
L 659.655316 345.798606 
L 659.655316 70.746517 
L 653.384183 70.746517 
z
" clip-path="url(#p414963813b)" style="fill: #a9dca3"/>
   </g>
   <g id="patch_22">
    <path d="M 684.739848 345.798606 
L 691.010981 345.798606 
L 691.010981 42.292853 
L 684.739848 42.292853 
z
" clip-path="url(#p414963813b)" style="fill: #a9dca3"/>
   </g>
   <g id="patch_23">
    <path d="M 716.095513 345.798606 
L 722.366646 345.798606 
L 722.366646 48.615889 
L 716.095513 48.615889 
z
" clip-path="url(#p414963813b)" style="fill: #a9dca3"/>
   </g>
   <g id="patch_24">
    <path d="M 747.451178 345.798606 
L 753.722311 345.798606 
L 753.722311 92.877145 
L 747.451178 92.877145 
z
" clip-path="url(#p414963813b)" style="fill: #a9dca3"/>
   </g>
   <g id="patch_25">
    <path d="M 778.806843 345.798606 
L 785.077976 345.798606 
L 785.077976 178.238138 
L 778.806843 178.238138 
z
" clip-path="url(#p414963813b)" style="fill: #a9dca3"/>
   </g>
   <g id="patch_26">
    <path d="M 810.162508 345.798606 
L 816.433641 345.798606 
L 816.433641 115.007773 
L 810.162508 115.007773 
z
" clip-path="url(#p414963813b)" style="fill: #a9dca3"/>
   </g>
   <g id="patch_27">
    <path d="M 841.518172 345.798606 
L 847.789305 345.798606 
L 847.789305 64.423481 
L 841.518172 64.423481 
z
" clip-path="url(#p414963813b)" style="fill: #a9dca3"/>
   </g>
   <g id="patch_28">
    <path d="M 872.873837 345.798606 
L 879.14497 345.798606 
L 879.14497 77.069554 
L 872.873837 77.069554 
z
" clip-path="url(#p414963813b)" style="fill: #a9dca3"/>
   </g>
   <g id="patch_29">
    <path d="M 904.229502 345.798606 
L 910.500635 345.798606 
L 910.500635 78.77191 
L 904.229502 78.77191 
z
" clip-path="url(#p414963813b)" style="fill: url(#he24e016db0); stroke: #000000; stroke-linejoin: miter"/>
   </g>
   <g id="patch_30">
    <path d="M 95.253349 345.798606 
L 101.524482 345.798606 
L 101.524482 61.261962 
L 95.253349 61.261962 
z
" clip-path="url(#p414963813b)" style="fill: #66bd6f"/>
   </g>
   <g id="patch_31">
    <path d="M 126.609014 345.798606 
L 132.880147 345.798606 
L 132.880147 118.169291 
L 126.609014 118.169291 
z
" clip-path="url(#p414963813b)" style="fill: #66bd6f"/>
   </g>
   <g id="patch_32">
    <path d="M 157.964679 345.798606 
L 164.235812 345.798606 
L 164.235812 64.423481 
L 157.964679 64.423481 
z
" clip-path="url(#p414963813b)" style="fill: #66bd6f"/>
   </g>
   <g id="patch_33">
    <path d="M 189.320343 345.798606 
L 195.591476 345.798606 
L 195.591476 61.261962 
L 189.320343 61.261962 
z
" clip-path="url(#p414963813b)" style="fill: #66bd6f"/>
   </g>
   <g id="patch_34">
    <path d="M 220.676008 345.798606 
L 226.947141 345.798606 
L 226.947141 54.938926 
L 220.676008 54.938926 
z
" clip-path="url(#p414963813b)" style="fill: #66bd6f"/>
   </g>
   <g id="patch_35">
    <path d="M 252.031673 345.798606 
L 258.302806 345.798606 
L 258.302806 96.038663 
L 252.031673 96.038663 
z
" clip-path="url(#p414963813b)" style="fill: #66bd6f"/>
   </g>
   <g id="patch_36">
    <path d="M 283.387338 345.798606 
L 289.658471 345.798606 
L 289.658471 48.615889 
L 283.387338 48.615889 
z
" clip-path="url(#p414963813b)" style="fill: #66bd6f"/>
   </g>
   <g id="patch_37">
    <path d="M 314.743003 345.798606 
L 321.014136 345.798606 
L 321.014136 58.100444 
L 314.743003 58.100444 
z
" clip-path="url(#p414963813b)" style="fill: #66bd6f"/>
   </g>
   <g id="patch_38">
    <path d="M 346.098668 345.798606 
L 352.369801 345.798606 
L 352.369801 70.746517 
L 346.098668 70.746517 
z
" clip-path="url(#p414963813b)" style="fill: #66bd6f"/>
   </g>
   <g id="patch_39">
    <path d="M 377.454333 345.798606 
L 383.725466 345.798606 
L 383.725466 48.615889 
L 377.454333 48.615889 
z
" clip-path="url(#p414963813b)" style="fill: #66bd6f"/>
   </g>
   <g id="patch_40">
    <path d="M 408.809997 345.798606 
L 415.08113 345.798606 
L 415.08113 48.615889 
L 408.809997 48.615889 
z
" clip-path="url(#p414963813b)" style="fill: #66bd6f"/>
   </g>
   <g id="patch_41">
    <path d="M 440.165662 345.798606 
L 446.436795 345.798606 
L 446.436795 45.454371 
L 440.165662 45.454371 
z
" clip-path="url(#p414963813b)" style="fill: #66bd6f"/>
   </g>
   <g id="patch_42">
    <path d="M 471.521327 345.798606 
L 477.79246 345.798606 
L 477.79246 35.969816 
L 471.521327 35.969816 
z
" clip-path="url(#p414963813b)" style="fill: #66bd6f"/>
   </g>
   <g id="patch_43">
    <path d="M 502.876992 345.798606 
L 509.148125 345.798606 
L 509.148125 29.64678 
L 502.876992 29.64678 
z
" clip-path="url(#p414963813b)" style="fill: #66bd6f"/>
   </g>
   <g id="patch_44">
    <path d="M 534.232657 345.798606 
L 540.50379 345.798606 
L 540.50379 51.777408 
L 534.232657 51.777408 
z
" clip-path="url(#p414963813b)" style="fill: #66bd6f"/>
   </g>
   <g id="patch_45">
    <path d="M 565.588322 345.798606 
L 571.859455 345.798606 
L 571.859455 26.485261 
L 565.588322 26.485261 
z
" clip-path="url(#p414963813b)" style="fill: #66bd6f"/>
   </g>
   <g id="patch_46">
    <path d="M 596.943987 345.798606 
L 603.21512 345.798606 
L 603.21512 32.808298 
L 596.943987 32.808298 
z
" clip-path="url(#p414963813b)" style="fill: #66bd6f"/>
   </g>
   <g id="patch_47">
    <path d="M 628.299651 345.798606 
L 634.570784 345.798606 
L 634.570784 86.554108 
L 628.299651 86.554108 
z
" clip-path="url(#p414963813b)" style="fill: #66bd6f"/>
   </g>
   <g id="patch_48">
    <path d="M 659.655316 345.798606 
L 665.926449 345.798606 
L 665.926449 58.100444 
L 659.655316 58.100444 
z
" clip-path="url(#p414963813b)" style="fill: #66bd6f"/>
   </g>
   <g id="patch_49">
    <path d="M 691.010981 345.798606 
L 697.282114 345.798606 
L 697.282114 51.777408 
L 691.010981 51.777408 
z
" clip-path="url(#p414963813b)" style="fill: #66bd6f"/>
   </g>
   <g id="patch_50">
    <path d="M 722.366646 345.798606 
L 728.637779 345.798606 
L 728.637779 26.485261 
L 722.366646 26.485261 
z
" clip-path="url(#p414963813b)" style="fill: #66bd6f"/>
   </g>
   <g id="patch_51">
    <path d="M 753.722311 345.798606 
L 759.993444 345.798606 
L 759.993444 67.584999 
L 753.722311 67.584999 
z
" clip-path="url(#p414963813b)" style="fill: #66bd6f"/>
   </g>
   <g id="patch_52">
    <path d="M 785.077976 345.798606 
L 791.349109 345.798606 
L 791.349109 105.523218 
L 785.077976 105.523218 
z
" clip-path="url(#p414963813b)" style="fill: #66bd6f"/>
   </g>
   <g id="patch_53">
    <path d="M 816.433641 345.798606 
L 822.704774 345.798606 
L 822.704774 96.038663 
L 816.433641 96.038663 
z
" clip-path="url(#p414963813b)" style="fill: #66bd6f"/>
   </g>
   <g id="patch_54">
    <path d="M 847.789305 345.798606 
L 854.060438 345.798606 
L 854.060438 51.777408 
L 847.789305 51.777408 
z
" clip-path="url(#p414963813b)" style="fill: #66bd6f"/>
   </g>
   <g id="patch_55">
    <path d="M 879.14497 345.798606 
L 885.416103 345.798606 
L 885.416103 67.584999 
L 879.14497 67.584999 
z
" clip-path="url(#p414963813b)" style="fill: #66bd6f"/>
   </g>
   <g id="patch_56">
    <path d="M 910.500635 345.798606 
L 916.771768 345.798606 
L 916.771768 60.167591 
L 910.500635 60.167591 
z
" clip-path="url(#p414963813b)" style="fill: url(#h37db0f6472); stroke: #000000; stroke-linejoin: miter"/>
   </g>
   <g id="patch_57">
    <path d="M 101.524482 345.798606 
L 107.795615 345.798606 
L 107.795615 61.261962 
L 101.524482 61.261962 
z
" clip-path="url(#p414963813b)" style="fill: #2b934b"/>
   </g>
   <g id="patch_58">
    <path d="M 132.880147 345.798606 
L 139.15128 345.798606 
L 139.15128 171.915102 
L 132.880147 171.915102 
z
" clip-path="url(#p414963813b)" style="fill: #2b934b"/>
   </g>
   <g id="patch_59">
    <path d="M 164.235812 345.798606 
L 170.506945 345.798606 
L 170.506945 42.292853 
L 164.235812 42.292853 
z
" clip-path="url(#p414963813b)" style="fill: #2b934b"/>
   </g>
   <g id="patch_60">
    <path d="M 195.591476 345.798606 
L 201.862609 345.798606 
L 201.862609 51.777408 
L 195.591476 51.777408 
z
" clip-path="url(#p414963813b)" style="fill: #2b934b"/>
   </g>
   <g id="patch_61">
    <path d="M 226.947141 345.798606 
L 233.218274 345.798606 
L 233.218274 32.808298 
L 226.947141 32.808298 
z
" clip-path="url(#p414963813b)" style="fill: #2b934b"/>
   </g>
   <g id="patch_62">
    <path d="M 258.302806 345.798606 
L 264.573939 345.798606 
L 264.573939 48.615889 
L 258.302806 48.615889 
z
" clip-path="url(#p414963813b)" style="fill: #2b934b"/>
   </g>
   <g id="patch_63">
    <path d="M 289.658471 345.798606 
L 295.929604 345.798606 
L 295.929604 48.615889 
L 289.658471 48.615889 
z
" clip-path="url(#p414963813b)" style="fill: #2b934b"/>
   </g>
   <g id="patch_64">
    <path d="M 321.014136 345.798606 
L 327.285269 345.798606 
L 327.285269 86.554108 
L 321.014136 86.554108 
z
" clip-path="url(#p414963813b)" style="fill: #2b934b"/>
   </g>
   <g id="patch_65">
    <path d="M 352.369801 345.798606 
L 358.640934 345.798606 
L 358.640934 58.100444 
L 352.369801 58.100444 
z
" clip-path="url(#p414963813b)" style="fill: #2b934b"/>
   </g>
   <g id="patch_66">
    <path d="M 383.725466 345.798606 
L 389.996599 345.798606 
L 389.996599 67.584999 
L 383.725466 67.584999 
z
" clip-path="url(#p414963813b)" style="fill: #2b934b"/>
   </g>
   <g id="patch_67">
    <path d="M 415.08113 345.798606 
L 421.352263 345.798606 
L 421.352263 39.131334 
L 415.08113 39.131334 
z
" clip-path="url(#p414963813b)" style="fill: #2b934b"/>
   </g>
   <g id="patch_68">
    <path d="M 446.436795 345.798606 
L 452.707928 345.798606 
L 452.707928 45.454371 
L 446.436795 45.454371 
z
" clip-path="url(#p414963813b)" style="fill: #2b934b"/>
   </g>
   <g id="patch_69">
    <path d="M 477.79246 345.798606 
L 484.063593 345.798606 
L 484.063593 42.292853 
L 477.79246 42.292853 
z
" clip-path="url(#p414963813b)" style="fill: #2b934b"/>
   </g>
   <g id="patch_70">
    <path d="M 509.148125 345.798606 
L 515.419258 345.798606 
L 515.419258 29.64678 
L 509.148125 29.64678 
z
" clip-path="url(#p414963813b)" style="fill: #2b934b"/>
   </g>
   <g id="patch_71">
    <path d="M 540.50379 345.798606 
L 546.774923 345.798606 
L 546.774923 29.64678 
L 540.50379 29.64678 
z
" clip-path="url(#p414963813b)" style="fill: #2b934b"/>
   </g>
   <g id="patch_72">
    <path d="M 571.859455 345.798606 
L 578.130588 345.798606 
L 578.130588 42.292853 
L 571.859455 42.292853 
z
" clip-path="url(#p414963813b)" style="fill: #2b934b"/>
   </g>
   <g id="patch_73">
    <path d="M 603.21512 345.798606 
L 609.486253 345.798606 
L 609.486253 45.454371 
L 603.21512 45.454371 
z
" clip-path="url(#p414963813b)" style="fill: #2b934b"/>
   </g>
   <g id="patch_74">
    <path d="M 634.570784 345.798606 
L 640.841917 345.798606 
L 640.841917 77.069554 
L 634.570784 77.069554 
z
" clip-path="url(#p414963813b)" style="fill: #2b934b"/>
   </g>
   <g id="patch_75">
    <path d="M 665.926449 345.798606 
L 672.197582 345.798606 
L 672.197582 77.069554 
L 665.926449 77.069554 
z
" clip-path="url(#p414963813b)" style="fill: #2b934b"/>
   </g>
   <g id="patch_76">
    <path d="M 697.282114 345.798606 
L 703.553247 345.798606 
L 703.553247 48.615889 
L 697.282114 48.615889 
z
" clip-path="url(#p414963813b)" style="fill: #2b934b"/>
   </g>
   <g id="patch_77">
    <path d="M 728.637779 345.798606 
L 734.908912 345.798606 
L 734.908912 35.969816 
L 728.637779 35.969816 
z
" clip-path="url(#p414963813b)" style="fill: #2b934b"/>
   </g>
   <g id="patch_78">
    <path d="M 759.993444 345.798606 
L 766.264577 345.798606 
L 766.264577 58.100444 
L 759.993444 58.100444 
z
" clip-path="url(#p414963813b)" style="fill: #2b934b"/>
   </g>
   <g id="patch_79">
    <path d="M 791.349109 345.798606 
L 797.620242 345.798606 
L 797.620242 96.038663 
L 791.349109 96.038663 
z
" clip-path="url(#p414963813b)" style="fill: #2b934b"/>
   </g>
   <g id="patch_80">
    <path d="M 822.704774 345.798606 
L 828.975907 345.798606 
L 828.975907 67.584999 
L 822.704774 67.584999 
z
" clip-path="url(#p414963813b)" style="fill: #2b934b"/>
   </g>
   <g id="patch_81">
    <path d="M 854.060438 345.798606 
L 860.331571 345.798606 
L 860.331571 51.777408 
L 854.060438 51.777408 
z
" clip-path="url(#p414963813b)" style="fill: #2b934b"/>
   </g>
   <g id="patch_82">
    <path d="M 885.416103 345.798606 
L 891.687236 345.798606 
L 891.687236 45.454371 
L 885.416103 45.454371 
z
" clip-path="url(#p414963813b)" style="fill: #2b934b"/>
   </g>
   <g id="patch_83">
    <path d="M 916.771768 345.798606 
L 923.042901 345.798606 
L 923.042901 57.735653 
L 916.771768 57.735653 
z
" clip-path="url(#p414963813b)" style="fill: url(#h295b203ec3); stroke: #000000; stroke-linejoin: miter"/>
   </g>
   <g id="patch_84">
    <path d="M 107.795615 345.798606 
L 114.066748 345.798606 
L 114.066748 39.131334 
L 107.795615 39.131334 
z
" clip-path="url(#p414963813b)" style="fill: #006428"/>
   </g>
   <g id="patch_85">
    <path d="M 139.15128 345.798606 
L 145.422413 345.798606 
L 145.422413 130.815364 
L 139.15128 130.815364 
z
" clip-path="url(#p414963813b)" style="fill: #006428"/>
   </g>
   <g id="patch_86">
    <path d="M 170.506945 345.798606 
L 176.778078 345.798606 
L 176.778078 48.615889 
L 170.506945 48.615889 
z
" clip-path="url(#p414963813b)" style="fill: #006428"/>
   </g>
   <g id="patch_87">
    <path d="M 201.862609 345.798606 
L 208.133742 345.798606 
L 208.133742 51.777408 
L 201.862609 51.777408 
z
" clip-path="url(#p414963813b)" style="fill: #006428"/>
   </g>
   <g id="patch_88">
    <path d="M 233.218274 345.798606 
L 239.489407 345.798606 
L 239.489407 61.261962 
L 233.218274 61.261962 
z
" clip-path="url(#p414963813b)" style="fill: #006428"/>
   </g>
   <g id="patch_89">
    <path d="M 264.573939 345.798606 
L 270.845072 345.798606 
L 270.845072 80.231072 
L 264.573939 80.231072 
z
" clip-path="url(#p414963813b)" style="fill: #006428"/>
   </g>
   <g id="patch_90">
    <path d="M 295.929604 345.798606 
L 302.200737 345.798606 
L 302.200737 35.969816 
L 295.929604 35.969816 
z
" clip-path="url(#p414963813b)" style="fill: #006428"/>
   </g>
   <g id="patch_91">
    <path d="M 327.285269 345.798606 
L 333.556402 345.798606 
L 333.556402 64.423481 
L 327.285269 64.423481 
z
" clip-path="url(#p414963813b)" style="fill: #006428"/>
   </g>
   <g id="patch_92">
    <path d="M 358.640934 345.798606 
L 364.912067 345.798606 
L 364.912067 77.069554 
L 358.640934 77.069554 
z
" clip-path="url(#p414963813b)" style="fill: #006428"/>
   </g>
   <g id="patch_93">
    <path d="M 389.996599 345.798606 
L 396.267732 345.798606 
L 396.267732 89.715627 
L 389.996599 89.715627 
z
" clip-path="url(#p414963813b)" style="fill: #006428"/>
   </g>
   <g id="patch_94">
    <path d="M 421.352263 345.798606 
L 427.623396 345.798606 
L 427.623396 23.323743 
L 421.352263 23.323743 
z
" clip-path="url(#p414963813b)" style="fill: #006428"/>
   </g>
   <g id="patch_95">
    <path d="M 452.707928 345.798606 
L 458.979061 345.798606 
L 458.979061 58.100444 
L 452.707928 58.100444 
z
" clip-path="url(#p414963813b)" style="fill: #006428"/>
   </g>
   <g id="patch_96">
    <path d="M 484.063593 345.798606 
L 490.334726 345.798606 
L 490.334726 29.64678 
L 484.063593 29.64678 
z
" clip-path="url(#p414963813b)" style="fill: #006428"/>
   </g>
   <g id="patch_97">
    <path d="M 515.419258 345.798606 
L 521.690391 345.798606 
L 521.690391 39.131334 
L 515.419258 39.131334 
z
" clip-path="url(#p414963813b)" style="fill: #006428"/>
   </g>
   <g id="patch_98">
    <path d="M 546.774923 345.798606 
L 553.046056 345.798606 
L 553.046056 48.615889 
L 546.774923 48.615889 
z
" clip-path="url(#p414963813b)" style="fill: #006428"/>
   </g>
   <g id="patch_99">
    <path d="M 578.130588 345.798606 
L 584.401721 345.798606 
L 584.401721 23.323743 
L 578.130588 23.323743 
z
" clip-path="url(#p414963813b)" style="fill: #006428"/>
   </g>
   <g id="patch_100">
    <path d="M 609.486253 345.798606 
L 615.757386 345.798606 
L 615.757386 32.808298 
L 609.486253 32.808298 
z
" clip-path="url(#p414963813b)" style="fill: #006428"/>
   </g>
   <g id="patch_101">
    <path d="M 640.841917 345.798606 
L 647.11305 345.798606 
L 647.11305 54.938926 
L 640.841917 54.938926 
z
" clip-path="url(#p414963813b)" style="fill: #006428"/>
   </g>
   <g id="patch_102">
    <path d="M 672.197582 345.798606 
L 678.468715 345.798606 
L 678.468715 51.777408 
L 672.197582 51.777408 
z
" clip-path="url(#p414963813b)" style="fill: #006428"/>
   </g>
   <g id="patch_103">
    <path d="M 703.553247 345.798606 
L 709.82438 345.798606 
L 709.82438 45.454371 
L 703.553247 45.454371 
z
" clip-path="url(#p414963813b)" style="fill: #006428"/>
   </g>
   <g id="patch_104">
    <path d="M 734.908912 345.798606 
L 741.180045 345.798606 
L 741.180045 45.454371 
L 734.908912 45.454371 
z
" clip-path="url(#p414963813b)" style="fill: #006428"/>
   </g>
   <g id="patch_105">
    <path d="M 766.264577 345.798606 
L 772.53571 345.798606 
L 772.53571 42.292853 
L 766.264577 42.292853 
z
" clip-path="url(#p414963813b)" style="fill: #006428"/>
   </g>
   <g id="patch_106">
    <path d="M 797.620242 345.798606 
L 803.891375 345.798606 
L 803.891375 45.454371 
L 797.620242 45.454371 
z
" clip-path="url(#p414963813b)" style="fill: #006428"/>
   </g>
   <g id="patch_107">
    <path d="M 828.975907 345.798606 
L 835.24704 345.798606 
L 835.24704 58.100444 
L 828.975907 58.100444 
z
" clip-path="url(#p414963813b)" style="fill: #006428"/>
   </g>
   <g id="patch_108">
    <path d="M 860.331571 345.798606 
L 866.602704 345.798606 
L 866.602704 80.231072 
L 860.331571 80.231072 
z
" clip-path="url(#p414963813b)" style="fill: #006428"/>
   </g>
   <g id="patch_109">
    <path d="M 891.687236 345.798606 
L 897.958369 345.798606 
L 897.958369 42.292853 
L 891.687236 42.292853 
z
" clip-path="url(#p414963813b)" style="fill: #006428"/>
   </g>
   <g id="patch_110">
    <path d="M 923.042901 345.798606 
L 929.314034 345.798606 
L 929.314034 53.844554 
L 923.042901 53.844554 
z
" clip-path="url(#p414963813b)" style="fill: url(#h12fd9d1645); stroke: #000000; stroke-linejoin: miter"/>
   </g>
   <g id="matplotlib.axis_1">
    <g id="xtick_1">
     <g id="line2d_1">
      <defs>
       <path id="m2028e919b4" d="M 0 0 
L 0 3.5 
" style="stroke: #000000; stroke-width: 0.8"/>
      </defs>
      <g>
       <use xlink:href="#m2028e919b4" x="101.524482" y="345.798606" style="stroke: #000000; stroke-width: 0.8"/>
      </g>
     </g>
     <g id="text_1">
      <!-- 1 -->
      <g transform="translate(101.226171 362.67048) rotate(-45) scale(0.1 -0.1)">
       <defs>
        <path id="DejaVuSans-31" d="M 794 531 
L 1825 531 
L 1825 4091 
L 703 3866 
L 703 4441 
L 1819 4666 
L 2450 4666 
L 2450 531 
L 3481 531 
L 3481 0 
L 794 0 
L 794 531 
z
" transform="scale(0.015625)"/>
       </defs>
       <use xlink:href="#DejaVuSans-31"/>
      </g>
     </g>
    </g>
    <g id="xtick_2">
     <g id="line2d_2">
      <g>
       <use xlink:href="#m2028e919b4" x="132.880147" y="345.798606" style="stroke: #000000; stroke-width: 0.8"/>
      </g>
     </g>
     <g id="text_2">
      <!-- 2 -->
      <g transform="translate(132.581836 362.67048) rotate(-45) scale(0.1 -0.1)">
       <defs>
        <path id="DejaVuSans-32" d="M 1228 531 
L 3431 531 
L 3431 0 
L 469 0 
L 469 531 
Q 828 903 1448 1529 
Q 2069 2156 2228 2338 
Q 2531 2678 2651 2914 
Q 2772 3150 2772 3378 
Q 2772 3750 2511 3984 
Q 2250 4219 1831 4219 
Q 1534 4219 1204 4116 
Q 875 4013 500 3803 
L 500 4441 
Q 881 4594 1212 4672 
Q 1544 4750 1819 4750 
Q 2544 4750 2975 4387 
Q 3406 4025 3406 3419 
Q 3406 3131 3298 2873 
Q 3191 2616 2906 2266 
Q 2828 2175 2409 1742 
Q 1991 1309 1228 531 
z
" transform="scale(0.015625)"/>
       </defs>
       <use xlink:href="#DejaVuSans-32"/>
      </g>
     </g>
    </g>
    <g id="xtick_3">
     <g id="line2d_3">
      <g>
       <use xlink:href="#m2028e919b4" x="164.235812" y="345.798606" style="stroke: #000000; stroke-width: 0.8"/>
      </g>
     </g>
     <g id="text_3">
      <!-- 3 -->
      <g transform="translate(163.937501 362.67048) rotate(-45) scale(0.1 -0.1)">
       <defs>
        <path id="DejaVuSans-33" d="M 2597 2516 
Q 3050 2419 3304 2112 
Q 3559 1806 3559 1356 
Q 3559 666 3084 287 
Q 2609 -91 1734 -91 
Q 1441 -91 1130 -33 
Q 819 25 488 141 
L 488 750 
Q 750 597 1062 519 
Q 1375 441 1716 441 
Q 2309 441 2620 675 
Q 2931 909 2931 1356 
Q 2931 1769 2642 2001 
Q 2353 2234 1838 2234 
L 1294 2234 
L 1294 2753 
L 1863 2753 
Q 2328 2753 2575 2939 
Q 2822 3125 2822 3475 
Q 2822 3834 2567 4026 
Q 2313 4219 1838 4219 
Q 1578 4219 1281 4162 
Q 984 4106 628 3988 
L 628 4550 
Q 988 4650 1302 4700 
Q 1616 4750 1894 4750 
Q 2613 4750 3031 4423 
Q 3450 4097 3450 3541 
Q 3450 3153 3228 2886 
Q 3006 2619 2597 2516 
z
" transform="scale(0.015625)"/>
       </defs>
       <use xlink:href="#DejaVuSans-33"/>
      </g>
     </g>
    </g>
    <g id="xtick_4">
     <g id="line2d_4">
      <g>
       <use xlink:href="#m2028e919b4" x="195.591476" y="345.798606" style="stroke: #000000; stroke-width: 0.8"/>
      </g>
     </g>
     <g id="text_4">
      <!-- 4 -->
      <g transform="translate(195.293166 362.67048) rotate(-45) scale(0.1 -0.1)">
       <defs>
        <path id="DejaVuSans-34" d="M 2419 4116 
L 825 1625 
L 2419 1625 
L 2419 4116 
z
M 2253 4666 
L 3047 4666 
L 3047 1625 
L 3713 1625 
L 3713 1100 
L 3047 1100 
L 3047 0 
L 2419 0 
L 2419 1100 
L 313 1100 
L 313 1709 
L 2253 4666 
z
" transform="scale(0.015625)"/>
       </defs>
       <use xlink:href="#DejaVuSans-34"/>
      </g>
     </g>
    </g>
    <g id="xtick_5">
     <g id="line2d_5">
      <g>
       <use xlink:href="#m2028e919b4" x="226.947141" y="345.798606" style="stroke: #000000; stroke-width: 0.8"/>
      </g>
     </g>
     <g id="text_5">
      <!-- 5 -->
      <g transform="translate(226.648831 362.67048) rotate(-45) scale(0.1 -0.1)">
       <defs>
        <path id="DejaVuSans-35" d="M 691 4666 
L 3169 4666 
L 3169 4134 
L 1269 4134 
L 1269 2991 
Q 1406 3038 1543 3061 
Q 1681 3084 1819 3084 
Q 2600 3084 3056 2656 
Q 3513 2228 3513 1497 
Q 3513 744 3044 326 
Q 2575 -91 1722 -91 
Q 1428 -91 1123 -41 
Q 819 9 494 109 
L 494 744 
Q 775 591 1075 516 
Q 1375 441 1709 441 
Q 2250 441 2565 725 
Q 2881 1009 2881 1497 
Q 2881 1984 2565 2268 
Q 2250 2553 1709 2553 
Q 1456 2553 1204 2497 
Q 953 2441 691 2322 
L 691 4666 
z
" transform="scale(0.015625)"/>
       </defs>
       <use xlink:href="#DejaVuSans-35"/>
      </g>
     </g>
    </g>
    <g id="xtick_6">
     <g id="line2d_6">
      <g>
       <use xlink:href="#m2028e919b4" x="258.302806" y="345.798606" style="stroke: #000000; stroke-width: 0.8"/>
      </g>
     </g>
     <g id="text_6">
      <!-- 6 -->
      <g transform="translate(258.004495 362.67048) rotate(-45) scale(0.1 -0.1)">
       <defs>
        <path id="DejaVuSans-36" d="M 2113 2584 
Q 1688 2584 1439 2293 
Q 1191 2003 1191 1497 
Q 1191 994 1439 701 
Q 1688 409 2113 409 
Q 2538 409 2786 701 
Q 3034 994 3034 1497 
Q 3034 2003 2786 2293 
Q 2538 2584 2113 2584 
z
M 3366 4563 
L 3366 3988 
Q 3128 4100 2886 4159 
Q 2644 4219 2406 4219 
Q 1781 4219 1451 3797 
Q 1122 3375 1075 2522 
Q 1259 2794 1537 2939 
Q 1816 3084 2150 3084 
Q 2853 3084 3261 2657 
Q 3669 2231 3669 1497 
Q 3669 778 3244 343 
Q 2819 -91 2113 -91 
Q 1303 -91 875 529 
Q 447 1150 447 2328 
Q 447 3434 972 4092 
Q 1497 4750 2381 4750 
Q 2619 4750 2861 4703 
Q 3103 4656 3366 4563 
z
" transform="scale(0.015625)"/>
       </defs>
       <use xlink:href="#DejaVuSans-36"/>
      </g>
     </g>
    </g>
    <g id="xtick_7">
     <g id="line2d_7">
      <g>
       <use xlink:href="#m2028e919b4" x="289.658471" y="345.798606" style="stroke: #000000; stroke-width: 0.8"/>
      </g>
     </g>
     <g id="text_7">
      <!-- 7 -->
      <g transform="translate(289.36016 362.67048) rotate(-45) scale(0.1 -0.1)">
       <defs>
        <path id="DejaVuSans-37" d="M 525 4666 
L 3525 4666 
L 3525 4397 
L 1831 0 
L 1172 0 
L 2766 4134 
L 525 4134 
L 525 4666 
z
" transform="scale(0.015625)"/>
       </defs>
       <use xlink:href="#DejaVuSans-37"/>
      </g>
     </g>
    </g>
    <g id="xtick_8">
     <g id="line2d_8">
      <g>
       <use xlink:href="#m2028e919b4" x="321.014136" y="345.798606" style="stroke: #000000; stroke-width: 0.8"/>
      </g>
     </g>
     <g id="text_8">
      <!-- 8 -->
      <g transform="translate(320.715825 362.67048) rotate(-45) scale(0.1 -0.1)">
       <defs>
        <path id="DejaVuSans-38" d="M 2034 2216 
Q 1584 2216 1326 1975 
Q 1069 1734 1069 1313 
Q 1069 891 1326 650 
Q 1584 409 2034 409 
Q 2484 409 2743 651 
Q 3003 894 3003 1313 
Q 3003 1734 2745 1975 
Q 2488 2216 2034 2216 
z
M 1403 2484 
Q 997 2584 770 2862 
Q 544 3141 544 3541 
Q 544 4100 942 4425 
Q 1341 4750 2034 4750 
Q 2731 4750 3128 4425 
Q 3525 4100 3525 3541 
Q 3525 3141 3298 2862 
Q 3072 2584 2669 2484 
Q 3125 2378 3379 2068 
Q 3634 1759 3634 1313 
Q 3634 634 3220 271 
Q 2806 -91 2034 -91 
Q 1263 -91 848 271 
Q 434 634 434 1313 
Q 434 1759 690 2068 
Q 947 2378 1403 2484 
z
M 1172 3481 
Q 1172 3119 1398 2916 
Q 1625 2713 2034 2713 
Q 2441 2713 2670 2916 
Q 2900 3119 2900 3481 
Q 2900 3844 2670 4047 
Q 2441 4250 2034 4250 
Q 1625 4250 1398 4047 
Q 1172 3844 1172 3481 
z
" transform="scale(0.015625)"/>
       </defs>
       <use xlink:href="#DejaVuSans-38"/>
      </g>
     </g>
    </g>
    <g id="xtick_9">
     <g id="line2d_9">
      <g>
       <use xlink:href="#m2028e919b4" x="352.369801" y="345.798606" style="stroke: #000000; stroke-width: 0.8"/>
      </g>
     </g>
     <g id="text_9">
      <!-- 9 -->
      <g transform="translate(352.07149 362.67048) rotate(-45) scale(0.1 -0.1)">
       <defs>
        <path id="DejaVuSans-39" d="M 703 97 
L 703 672 
Q 941 559 1184 500 
Q 1428 441 1663 441 
Q 2288 441 2617 861 
Q 2947 1281 2994 2138 
Q 2813 1869 2534 1725 
Q 2256 1581 1919 1581 
Q 1219 1581 811 2004 
Q 403 2428 403 3163 
Q 403 3881 828 4315 
Q 1253 4750 1959 4750 
Q 2769 4750 3195 4129 
Q 3622 3509 3622 2328 
Q 3622 1225 3098 567 
Q 2575 -91 1691 -91 
Q 1453 -91 1209 -44 
Q 966 3 703 97 
z
M 1959 2075 
Q 2384 2075 2632 2365 
Q 2881 2656 2881 3163 
Q 2881 3666 2632 3958 
Q 2384 4250 1959 4250 
Q 1534 4250 1286 3958 
Q 1038 3666 1038 3163 
Q 1038 2656 1286 2365 
Q 1534 2075 1959 2075 
z
" transform="scale(0.015625)"/>
       </defs>
       <use xlink:href="#DejaVuSans-39"/>
      </g>
     </g>
    </g>
    <g id="xtick_10">
     <g id="line2d_10">
      <g>
       <use xlink:href="#m2028e919b4" x="383.725466" y="345.798606" style="stroke: #000000; stroke-width: 0.8"/>
      </g>
     </g>
     <g id="text_10">
      <!-- 10 -->
      <g transform="translate(381.177671 367.169447) rotate(-45) scale(0.1 -0.1)">
       <defs>
        <path id="DejaVuSans-30" d="M 2034 4250 
Q 1547 4250 1301 3770 
Q 1056 3291 1056 2328 
Q 1056 1369 1301 889 
Q 1547 409 2034 409 
Q 2525 409 2770 889 
Q 3016 1369 3016 2328 
Q 3016 3291 2770 3770 
Q 2525 4250 2034 4250 
z
M 2034 4750 
Q 2819 4750 3233 4129 
Q 3647 3509 3647 2328 
Q 3647 1150 3233 529 
Q 2819 -91 2034 -91 
Q 1250 -91 836 529 
Q 422 1150 422 2328 
Q 422 3509 836 4129 
Q 1250 4750 2034 4750 
z
" transform="scale(0.015625)"/>
       </defs>
       <use xlink:href="#DejaVuSans-31"/>
       <use xlink:href="#DejaVuSans-30" transform="translate(63.623047 0)"/>
      </g>
     </g>
    </g>
    <g id="xtick_11">
     <g id="line2d_11">
      <g>
       <use xlink:href="#m2028e919b4" x="415.08113" y="345.798606" style="stroke: #000000; stroke-width: 0.8"/>
      </g>
     </g>
     <g id="text_11">
      <!-- 11 -->
      <g transform="translate(412.533336 367.169447) rotate(-45) scale(0.1 -0.1)">
       <use xlink:href="#DejaVuSans-31"/>
       <use xlink:href="#DejaVuSans-31" transform="translate(63.623047 0)"/>
      </g>
     </g>
    </g>
    <g id="xtick_12">
     <g id="line2d_12">
      <g>
       <use xlink:href="#m2028e919b4" x="446.436795" y="345.798606" style="stroke: #000000; stroke-width: 0.8"/>
      </g>
     </g>
     <g id="text_12">
      <!-- 12 -->
      <g transform="translate(443.889001 367.169447) rotate(-45) scale(0.1 -0.1)">
       <use xlink:href="#DejaVuSans-31"/>
       <use xlink:href="#DejaVuSans-32" transform="translate(63.623047 0)"/>
      </g>
     </g>
    </g>
    <g id="xtick_13">
     <g id="line2d_13">
      <g>
       <use xlink:href="#m2028e919b4" x="477.79246" y="345.798606" style="stroke: #000000; stroke-width: 0.8"/>
      </g>
     </g>
     <g id="text_13">
      <!-- 13 -->
      <g transform="translate(475.244666 367.169447) rotate(-45) scale(0.1 -0.1)">
       <use xlink:href="#DejaVuSans-31"/>
       <use xlink:href="#DejaVuSans-33" transform="translate(63.623047 0)"/>
      </g>
     </g>
    </g>
    <g id="xtick_14">
     <g id="line2d_14">
      <g>
       <use xlink:href="#m2028e919b4" x="509.148125" y="345.798606" style="stroke: #000000; stroke-width: 0.8"/>
      </g>
     </g>
     <g id="text_14">
      <!-- 14 -->
      <g transform="translate(506.600331 367.169447) rotate(-45) scale(0.1 -0.1)">
       <use xlink:href="#DejaVuSans-31"/>
       <use xlink:href="#DejaVuSans-34" transform="translate(63.623047 0)"/>
      </g>
     </g>
    </g>
    <g id="xtick_15">
     <g id="line2d_15">
      <g>
       <use xlink:href="#m2028e919b4" x="540.50379" y="345.798606" style="stroke: #000000; stroke-width: 0.8"/>
      </g>
     </g>
     <g id="text_15">
      <!-- 15 -->
      <g transform="translate(537.955996 367.169447) rotate(-45) scale(0.1 -0.1)">
       <use xlink:href="#DejaVuSans-31"/>
       <use xlink:href="#DejaVuSans-35" transform="translate(63.623047 0)"/>
      </g>
     </g>
    </g>
    <g id="xtick_16">
     <g id="line2d_16">
      <g>
       <use xlink:href="#m2028e919b4" x="571.859455" y="345.798606" style="stroke: #000000; stroke-width: 0.8"/>
      </g>
     </g>
     <g id="text_16">
      <!-- 16 -->
      <g transform="translate(569.311661 367.169447) rotate(-45) scale(0.1 -0.1)">
       <use xlink:href="#DejaVuSans-31"/>
       <use xlink:href="#DejaVuSans-36" transform="translate(63.623047 0)"/>
      </g>
     </g>
    </g>
    <g id="xtick_17">
     <g id="line2d_17">
      <g>
       <use xlink:href="#m2028e919b4" x="603.21512" y="345.798606" style="stroke: #000000; stroke-width: 0.8"/>
      </g>
     </g>
     <g id="text_17">
      <!-- 17 -->
      <g transform="translate(600.667325 367.169447) rotate(-45) scale(0.1 -0.1)">
       <use xlink:href="#DejaVuSans-31"/>
       <use xlink:href="#DejaVuSans-37" transform="translate(63.623047 0)"/>
      </g>
     </g>
    </g>
    <g id="xtick_18">
     <g id="line2d_18">
      <g>
       <use xlink:href="#m2028e919b4" x="634.570784" y="345.798606" style="stroke: #000000; stroke-width: 0.8"/>
      </g>
     </g>
     <g id="text_18">
      <!-- 18 -->
      <g transform="translate(632.02299 367.169447) rotate(-45) scale(0.1 -0.1)">
       <use xlink:href="#DejaVuSans-31"/>
       <use xlink:href="#DejaVuSans-38" transform="translate(63.623047 0)"/>
      </g>
     </g>
    </g>
    <g id="xtick_19">
     <g id="line2d_19">
      <g>
       <use xlink:href="#m2028e919b4" x="665.926449" y="345.798606" style="stroke: #000000; stroke-width: 0.8"/>
      </g>
     </g>
     <g id="text_19">
      <!-- 19 -->
      <g transform="translate(663.378655 367.169447) rotate(-45) scale(0.1 -0.1)">
       <use xlink:href="#DejaVuSans-31"/>
       <use xlink:href="#DejaVuSans-39" transform="translate(63.623047 0)"/>
      </g>
     </g>
    </g>
    <g id="xtick_20">
     <g id="line2d_20">
      <g>
       <use xlink:href="#m2028e919b4" x="697.282114" y="345.798606" style="stroke: #000000; stroke-width: 0.8"/>
      </g>
     </g>
     <g id="text_20">
      <!-- 20 -->
      <g transform="translate(694.73432 367.169447) rotate(-45) scale(0.1 -0.1)">
       <use xlink:href="#DejaVuSans-32"/>
       <use xlink:href="#DejaVuSans-30" transform="translate(63.623047 0)"/>
      </g>
     </g>
    </g>
    <g id="xtick_21">
     <g id="line2d_21">
      <g>
       <use xlink:href="#m2028e919b4" x="728.637779" y="345.798606" style="stroke: #000000; stroke-width: 0.8"/>
      </g>
     </g>
     <g id="text_21">
      <!-- 21 -->
      <g transform="translate(726.089985 367.169447) rotate(-45) scale(0.1 -0.1)">
       <use xlink:href="#DejaVuSans-32"/>
       <use xlink:href="#DejaVuSans-31" transform="translate(63.623047 0)"/>
      </g>
     </g>
    </g>
    <g id="xtick_22">
     <g id="line2d_22">
      <g>
       <use xlink:href="#m2028e919b4" x="759.993444" y="345.798606" style="stroke: #000000; stroke-width: 0.8"/>
      </g>
     </g>
     <g id="text_22">
      <!-- 22 -->
      <g transform="translate(757.44565 367.169447) rotate(-45) scale(0.1 -0.1)">
       <use xlink:href="#DejaVuSans-32"/>
       <use xlink:href="#DejaVuSans-32" transform="translate(63.623047 0)"/>
      </g>
     </g>
    </g>
    <g id="xtick_23">
     <g id="line2d_23">
      <g>
       <use xlink:href="#m2028e919b4" x="791.349109" y="345.798606" style="stroke: #000000; stroke-width: 0.8"/>
      </g>
     </g>
     <g id="text_23">
      <!-- 23 -->
      <g transform="translate(788.801315 367.169447) rotate(-45) scale(0.1 -0.1)">
       <use xlink:href="#DejaVuSans-32"/>
       <use xlink:href="#DejaVuSans-33" transform="translate(63.623047 0)"/>
      </g>
     </g>
    </g>
    <g id="xtick_24">
     <g id="line2d_24">
      <g>
       <use xlink:href="#m2028e919b4" x="822.704774" y="345.798606" style="stroke: #000000; stroke-width: 0.8"/>
      </g>
     </g>
     <g id="text_24">
      <!-- 24 -->
      <g transform="translate(820.156979 367.169447) rotate(-45) scale(0.1 -0.1)">
       <use xlink:href="#DejaVuSans-32"/>
       <use xlink:href="#DejaVuSans-34" transform="translate(63.623047 0)"/>
      </g>
     </g>
    </g>
    <g id="xtick_25">
     <g id="line2d_25">
      <g>
       <use xlink:href="#m2028e919b4" x="854.060438" y="345.798606" style="stroke: #000000; stroke-width: 0.8"/>
      </g>
     </g>
     <g id="text_25">
      <!-- 25 -->
      <g transform="translate(851.512644 367.169447) rotate(-45) scale(0.1 -0.1)">
       <use xlink:href="#DejaVuSans-32"/>
       <use xlink:href="#DejaVuSans-35" transform="translate(63.623047 0)"/>
      </g>
     </g>
    </g>
    <g id="xtick_26">
     <g id="line2d_26">
      <g>
       <use xlink:href="#m2028e919b4" x="885.416103" y="345.798606" style="stroke: #000000; stroke-width: 0.8"/>
      </g>
     </g>
     <g id="text_26">
      <!-- 26 -->
      <g transform="translate(882.868309 367.169447) rotate(-45) scale(0.1 -0.1)">
       <use xlink:href="#DejaVuSans-32"/>
       <use xlink:href="#DejaVuSans-36" transform="translate(63.623047 0)"/>
      </g>
     </g>
    </g>
    <g id="xtick_27">
     <g id="line2d_27">
      <g>
       <use xlink:href="#m2028e919b4" x="916.771768" y="345.798606" style="stroke: #000000; stroke-width: 0.8"/>
      </g>
     </g>
     <g id="text_27">
      <!-- group_mean -->
      <g transform="translate(896.465098 402.097207) rotate(-45) scale(0.1 -0.1)">
       <defs>
        <path id="DejaVuSans-67" d="M 2906 1791 
Q 2906 2416 2648 2759 
Q 2391 3103 1925 3103 
Q 1463 3103 1205 2759 
Q 947 2416 947 1791 
Q 947 1169 1205 825 
Q 1463 481 1925 481 
Q 2391 481 2648 825 
Q 2906 1169 2906 1791 
z
M 3481 434 
Q 3481 -459 3084 -895 
Q 2688 -1331 1869 -1331 
Q 1566 -1331 1297 -1286 
Q 1028 -1241 775 -1147 
L 775 -588 
Q 1028 -725 1275 -790 
Q 1522 -856 1778 -856 
Q 2344 -856 2625 -561 
Q 2906 -266 2906 331 
L 2906 616 
Q 2728 306 2450 153 
Q 2172 0 1784 0 
Q 1141 0 747 490 
Q 353 981 353 1791 
Q 353 2603 747 3093 
Q 1141 3584 1784 3584 
Q 2172 3584 2450 3431 
Q 2728 3278 2906 2969 
L 2906 3500 
L 3481 3500 
L 3481 434 
z
" transform="scale(0.015625)"/>
        <path id="DejaVuSans-72" d="M 2631 2963 
Q 2534 3019 2420 3045 
Q 2306 3072 2169 3072 
Q 1681 3072 1420 2755 
Q 1159 2438 1159 1844 
L 1159 0 
L 581 0 
L 581 3500 
L 1159 3500 
L 1159 2956 
Q 1341 3275 1631 3429 
Q 1922 3584 2338 3584 
Q 2397 3584 2469 3576 
Q 2541 3569 2628 3553 
L 2631 2963 
z
" transform="scale(0.015625)"/>
        <path id="DejaVuSans-6f" d="M 1959 3097 
Q 1497 3097 1228 2736 
Q 959 2375 959 1747 
Q 959 1119 1226 758 
Q 1494 397 1959 397 
Q 2419 397 2687 759 
Q 2956 1122 2956 1747 
Q 2956 2369 2687 2733 
Q 2419 3097 1959 3097 
z
M 1959 3584 
Q 2709 3584 3137 3096 
Q 3566 2609 3566 1747 
Q 3566 888 3137 398 
Q 2709 -91 1959 -91 
Q 1206 -91 779 398 
Q 353 888 353 1747 
Q 353 2609 779 3096 
Q 1206 3584 1959 3584 
z
" transform="scale(0.015625)"/>
        <path id="DejaVuSans-75" d="M 544 1381 
L 544 3500 
L 1119 3500 
L 1119 1403 
Q 1119 906 1312 657 
Q 1506 409 1894 409 
Q 2359 409 2629 706 
Q 2900 1003 2900 1516 
L 2900 3500 
L 3475 3500 
L 3475 0 
L 2900 0 
L 2900 538 
Q 2691 219 2414 64 
Q 2138 -91 1772 -91 
Q 1169 -91 856 284 
Q 544 659 544 1381 
z
M 1991 3584 
L 1991 3584 
z
" transform="scale(0.015625)"/>
        <path id="DejaVuSans-70" d="M 1159 525 
L 1159 -1331 
L 581 -1331 
L 581 3500 
L 1159 3500 
L 1159 2969 
Q 1341 3281 1617 3432 
Q 1894 3584 2278 3584 
Q 2916 3584 3314 3078 
Q 3713 2572 3713 1747 
Q 3713 922 3314 415 
Q 2916 -91 2278 -91 
Q 1894 -91 1617 61 
Q 1341 213 1159 525 
z
M 3116 1747 
Q 3116 2381 2855 2742 
Q 2594 3103 2138 3103 
Q 1681 3103 1420 2742 
Q 1159 2381 1159 1747 
Q 1159 1113 1420 752 
Q 1681 391 2138 391 
Q 2594 391 2855 752 
Q 3116 1113 3116 1747 
z
" transform="scale(0.015625)"/>
        <path id="DejaVuSans-5f" d="M 3263 -1063 
L 3263 -1509 
L -63 -1509 
L -63 -1063 
L 3263 -1063 
z
" transform="scale(0.015625)"/>
        <path id="DejaVuSans-6d" d="M 3328 2828 
Q 3544 3216 3844 3400 
Q 4144 3584 4550 3584 
Q 5097 3584 5394 3201 
Q 5691 2819 5691 2113 
L 5691 0 
L 5113 0 
L 5113 2094 
Q 5113 2597 4934 2840 
Q 4756 3084 4391 3084 
Q 3944 3084 3684 2787 
Q 3425 2491 3425 1978 
L 3425 0 
L 2847 0 
L 2847 2094 
Q 2847 2600 2669 2842 
Q 2491 3084 2119 3084 
Q 1678 3084 1418 2786 
Q 1159 2488 1159 1978 
L 1159 0 
L 581 0 
L 581 3500 
L 1159 3500 
L 1159 2956 
Q 1356 3278 1631 3431 
Q 1906 3584 2284 3584 
Q 2666 3584 2933 3390 
Q 3200 3197 3328 2828 
z
" transform="scale(0.015625)"/>
        <path id="DejaVuSans-65" d="M 3597 1894 
L 3597 1613 
L 953 1613 
Q 991 1019 1311 708 
Q 1631 397 2203 397 
Q 2534 397 2845 478 
Q 3156 559 3463 722 
L 3463 178 
Q 3153 47 2828 -22 
Q 2503 -91 2169 -91 
Q 1331 -91 842 396 
Q 353 884 353 1716 
Q 353 2575 817 3079 
Q 1281 3584 2069 3584 
Q 2775 3584 3186 3129 
Q 3597 2675 3597 1894 
z
M 3022 2063 
Q 3016 2534 2758 2815 
Q 2500 3097 2075 3097 
Q 1594 3097 1305 2825 
Q 1016 2553 972 2059 
L 3022 2063 
z
" transform="scale(0.015625)"/>
        <path id="DejaVuSans-61" d="M 2194 1759 
Q 1497 1759 1228 1600 
Q 959 1441 959 1056 
Q 959 750 1161 570 
Q 1363 391 1709 391 
Q 2188 391 2477 730 
Q 2766 1069 2766 1631 
L 2766 1759 
L 2194 1759 
z
M 3341 1997 
L 3341 0 
L 2766 0 
L 2766 531 
Q 2569 213 2275 61 
Q 1981 -91 1556 -91 
Q 1019 -91 701 211 
Q 384 513 384 1019 
Q 384 1609 779 1909 
Q 1175 2209 1959 2209 
L 2766 2209 
L 2766 2266 
Q 2766 2663 2505 2880 
Q 2244 3097 1772 3097 
Q 1472 3097 1187 3025 
Q 903 2953 641 2809 
L 641 3341 
Q 956 3463 1253 3523 
Q 1550 3584 1831 3584 
Q 2591 3584 2966 3190 
Q 3341 2797 3341 1997 
z
" transform="scale(0.015625)"/>
        <path id="DejaVuSans-6e" d="M 3513 2113 
L 3513 0 
L 2938 0 
L 2938 2094 
Q 2938 2591 2744 2837 
Q 2550 3084 2163 3084 
Q 1697 3084 1428 2787 
Q 1159 2491 1159 1978 
L 1159 0 
L 581 0 
L 581 3500 
L 1159 3500 
L 1159 2956 
Q 1366 3272 1645 3428 
Q 1925 3584 2291 3584 
Q 2894 3584 3203 3211 
Q 3513 2838 3513 2113 
z
" transform="scale(0.015625)"/>
       </defs>
       <use xlink:href="#DejaVuSans-67"/>
       <use xlink:href="#DejaVuSans-72" transform="translate(63.476562 0)"/>
       <use xlink:href="#DejaVuSans-6f" transform="translate(102.339844 0)"/>
       <use xlink:href="#DejaVuSans-75" transform="translate(163.521484 0)"/>
       <use xlink:href="#DejaVuSans-70" transform="translate(226.900391 0)"/>
       <use xlink:href="#DejaVuSans-5f" transform="translate(290.376953 0)"/>
       <use xlink:href="#DejaVuSans-6d" transform="translate(340.376953 0)"/>
       <use xlink:href="#DejaVuSans-65" transform="translate(437.789062 0)"/>
       <use xlink:href="#DejaVuSans-61" transform="translate(499.3125 0)"/>
       <use xlink:href="#DejaVuSans-6e" transform="translate(560.591797 0)"/>
      </g>
     </g>
    </g>
    <g id="text_28">
     <!-- Participant -->
     <g transform="translate(482.384062 415.36287) scale(0.1 -0.1)">
      <defs>
       <path id="DejaVuSans-50" d="M 1259 4147 
L 1259 2394 
L 2053 2394 
Q 2494 2394 2734 2622 
Q 2975 2850 2975 3272 
Q 2975 3691 2734 3919 
Q 2494 4147 2053 4147 
L 1259 4147 
z
M 628 4666 
L 2053 4666 
Q 2838 4666 3239 4311 
Q 3641 3956 3641 3272 
Q 3641 2581 3239 2228 
Q 2838 1875 2053 1875 
L 1259 1875 
L 1259 0 
L 628 0 
L 628 4666 
z
" transform="scale(0.015625)"/>
       <path id="DejaVuSans-74" d="M 1172 4494 
L 1172 3500 
L 2356 3500 
L 2356 3053 
L 1172 3053 
L 1172 1153 
Q 1172 725 1289 603 
Q 1406 481 1766 481 
L 2356 481 
L 2356 0 
L 1766 0 
Q 1100 0 847 248 
Q 594 497 594 1153 
L 594 3053 
L 172 3053 
L 172 3500 
L 594 3500 
L 594 4494 
L 1172 4494 
z
" transform="scale(0.015625)"/>
       <path id="DejaVuSans-69" d="M 603 3500 
L 1178 3500 
L 1178 0 
L 603 0 
L 603 3500 
z
M 603 4863 
L 1178 4863 
L 1178 4134 
L 603 4134 
L 603 4863 
z
" transform="scale(0.015625)"/>
       <path id="DejaVuSans-63" d="M 3122 3366 
L 3122 2828 
Q 2878 2963 2633 3030 
Q 2388 3097 2138 3097 
Q 1578 3097 1268 2742 
Q 959 2388 959 1747 
Q 959 1106 1268 751 
Q 1578 397 2138 397 
Q 2388 397 2633 464 
Q 2878 531 3122 666 
L 3122 134 
Q 2881 22 2623 -34 
Q 2366 -91 2075 -91 
Q 1284 -91 818 406 
Q 353 903 353 1747 
Q 353 2603 823 3093 
Q 1294 3584 2113 3584 
Q 2378 3584 2631 3529 
Q 2884 3475 3122 3366 
z
" transform="scale(0.015625)"/>
      </defs>
      <use xlink:href="#DejaVuSans-50"/>
      <use xlink:href="#DejaVuSans-61" transform="translate(55.802734 0)"/>
      <use xlink:href="#DejaVuSans-72" transform="translate(117.082031 0)"/>
      <use xlink:href="#DejaVuSans-74" transform="translate(158.195312 0)"/>
      <use xlink:href="#DejaVuSans-69" transform="translate(197.404297 0)"/>
      <use xlink:href="#DejaVuSans-63" transform="translate(225.1875 0)"/>
      <use xlink:href="#DejaVuSans-69" transform="translate(280.167969 0)"/>
      <use xlink:href="#DejaVuSans-70" transform="translate(307.951172 0)"/>
      <use xlink:href="#DejaVuSans-61" transform="translate(371.427734 0)"/>
      <use xlink:href="#DejaVuSans-6e" transform="translate(432.707031 0)"/>
      <use xlink:href="#DejaVuSans-74" transform="translate(496.085938 0)"/>
     </g>
    </g>
   </g>
   <g id="matplotlib.axis_2">
    <g id="ytick_1">
     <g id="line2d_28">
      <defs>
       <path id="m131dd4d84a" d="M 0 0 
L -3.5 0 
" style="stroke: #000000; stroke-width: 0.8"/>
      </defs>
      <g>
       <use xlink:href="#m131dd4d84a" x="46.965625" y="345.798606" style="stroke: #000000; stroke-width: 0.8"/>
      </g>
     </g>
     <g id="text_29">
      <!-- 0 -->
      <g transform="translate(33.603125 349.597825) scale(0.1 -0.1)">
       <use xlink:href="#DejaVuSans-30"/>
      </g>
     </g>
    </g>
    <g id="ytick_2">
     <g id="line2d_29">
      <g>
       <use xlink:href="#m131dd4d84a" x="46.965625" y="282.568241" style="stroke: #000000; stroke-width: 0.8"/>
      </g>
     </g>
     <g id="text_30">
      <!-- 20 -->
      <g transform="translate(27.240625 286.36746) scale(0.1 -0.1)">
       <use xlink:href="#DejaVuSans-32"/>
       <use xlink:href="#DejaVuSans-30" transform="translate(63.623047 0)"/>
      </g>
     </g>
    </g>
    <g id="ytick_3">
     <g id="line2d_30">
      <g>
       <use xlink:href="#m131dd4d84a" x="46.965625" y="219.337876" style="stroke: #000000; stroke-width: 0.8"/>
      </g>
     </g>
     <g id="text_31">
      <!-- 40 -->
      <g transform="translate(27.240625 223.137094) scale(0.1 -0.1)">
       <use xlink:href="#DejaVuSans-34"/>
       <use xlink:href="#DejaVuSans-30" transform="translate(63.623047 0)"/>
      </g>
     </g>
    </g>
    <g id="ytick_4">
     <g id="line2d_31">
      <g>
       <use xlink:href="#m131dd4d84a" x="46.965625" y="156.10751" style="stroke: #000000; stroke-width: 0.8"/>
      </g>
     </g>
     <g id="text_32">
      <!-- 60 -->
      <g transform="translate(27.240625 159.906729) scale(0.1 -0.1)">
       <use xlink:href="#DejaVuSans-36"/>
       <use xlink:href="#DejaVuSans-30" transform="translate(63.623047 0)"/>
      </g>
     </g>
    </g>
    <g id="ytick_5">
     <g id="line2d_32">
      <g>
       <use xlink:href="#m131dd4d84a" x="46.965625" y="92.877145" style="stroke: #000000; stroke-width: 0.8"/>
      </g>
     </g>
     <g id="text_33">
      <!-- 80 -->
      <g transform="translate(27.240625 96.676364) scale(0.1 -0.1)">
       <use xlink:href="#DejaVuSans-38"/>
       <use xlink:href="#DejaVuSans-30" transform="translate(63.623047 0)"/>
      </g>
     </g>
    </g>
    <g id="ytick_6">
     <g id="line2d_33">
      <g>
       <use xlink:href="#m131dd4d84a" x="46.965625" y="29.64678" style="stroke: #000000; stroke-width: 0.8"/>
      </g>
     </g>
     <g id="text_34">
      <!-- 100 -->
      <g transform="translate(20.878125 33.445998) scale(0.1 -0.1)">
       <use xlink:href="#DejaVuSans-31"/>
       <use xlink:href="#DejaVuSans-30" transform="translate(63.623047 0)"/>
       <use xlink:href="#DejaVuSans-30" transform="translate(127.246094 0)"/>
      </g>
     </g>
    </g>
    <g id="text_35">
     <!-- Number of responses -->
     <g transform="translate(14.798438 229.895397) rotate(-90) scale(0.1 -0.1)">
      <defs>
       <path id="DejaVuSans-4e" d="M 628 4666 
L 1478 4666 
L 3547 763 
L 3547 4666 
L 4159 4666 
L 4159 0 
L 3309 0 
L 1241 3903 
L 1241 0 
L 628 0 
L 628 4666 
z
" transform="scale(0.015625)"/>
       <path id="DejaVuSans-62" d="M 3116 1747 
Q 3116 2381 2855 2742 
Q 2594 3103 2138 3103 
Q 1681 3103 1420 2742 
Q 1159 2381 1159 1747 
Q 1159 1113 1420 752 
Q 1681 391 2138 391 
Q 2594 391 2855 752 
Q 3116 1113 3116 1747 
z
M 1159 2969 
Q 1341 3281 1617 3432 
Q 1894 3584 2278 3584 
Q 2916 3584 3314 3078 
Q 3713 2572 3713 1747 
Q 3713 922 3314 415 
Q 2916 -91 2278 -91 
Q 1894 -91 1617 61 
Q 1341 213 1159 525 
L 1159 0 
L 581 0 
L 581 4863 
L 1159 4863 
L 1159 2969 
z
" transform="scale(0.015625)"/>
       <path id="DejaVuSans-20" transform="scale(0.015625)"/>
       <path id="DejaVuSans-66" d="M 2375 4863 
L 2375 4384 
L 1825 4384 
Q 1516 4384 1395 4259 
Q 1275 4134 1275 3809 
L 1275 3500 
L 2222 3500 
L 2222 3053 
L 1275 3053 
L 1275 0 
L 697 0 
L 697 3053 
L 147 3053 
L 147 3500 
L 697 3500 
L 697 3744 
Q 697 4328 969 4595 
Q 1241 4863 1831 4863 
L 2375 4863 
z
" transform="scale(0.015625)"/>
       <path id="DejaVuSans-73" d="M 2834 3397 
L 2834 2853 
Q 2591 2978 2328 3040 
Q 2066 3103 1784 3103 
Q 1356 3103 1142 2972 
Q 928 2841 928 2578 
Q 928 2378 1081 2264 
Q 1234 2150 1697 2047 
L 1894 2003 
Q 2506 1872 2764 1633 
Q 3022 1394 3022 966 
Q 3022 478 2636 193 
Q 2250 -91 1575 -91 
Q 1294 -91 989 -36 
Q 684 19 347 128 
L 347 722 
Q 666 556 975 473 
Q 1284 391 1588 391 
Q 1994 391 2212 530 
Q 2431 669 2431 922 
Q 2431 1156 2273 1281 
Q 2116 1406 1581 1522 
L 1381 1569 
Q 847 1681 609 1914 
Q 372 2147 372 2553 
Q 372 3047 722 3315 
Q 1072 3584 1716 3584 
Q 2034 3584 2315 3537 
Q 2597 3491 2834 3397 
z
" transform="scale(0.015625)"/>
      </defs>
      <use xlink:href="#DejaVuSans-4e"/>
      <use xlink:href="#DejaVuSans-75" transform="translate(74.804688 0)"/>
      <use xlink:href="#DejaVuSans-6d" transform="translate(138.183594 0)"/>
      <use xlink:href="#DejaVuSans-62" transform="translate(235.595703 0)"/>
      <use xlink:href="#DejaVuSans-65" transform="translate(299.072266 0)"/>
      <use xlink:href="#DejaVuSans-72" transform="translate(360.595703 0)"/>
      <use xlink:href="#DejaVuSans-20" transform="translate(401.708984 0)"/>
      <use xlink:href="#DejaVuSans-6f" transform="translate(433.496094 0)"/>
      <use xlink:href="#DejaVuSans-66" transform="translate(494.677734 0)"/>
      <use xlink:href="#DejaVuSans-20" transform="translate(529.882812 0)"/>
      <use xlink:href="#DejaVuSans-72" transform="translate(561.669922 0)"/>
      <use xlink:href="#DejaVuSans-65" transform="translate(600.533203 0)"/>
      <use xlink:href="#DejaVuSans-73" transform="translate(662.056641 0)"/>
      <use xlink:href="#DejaVuSans-70" transform="translate(714.15625 0)"/>
      <use xlink:href="#DejaVuSans-6f" transform="translate(777.632812 0)"/>
      <use xlink:href="#DejaVuSans-6e" transform="translate(838.814453 0)"/>
      <use xlink:href="#DejaVuSans-73" transform="translate(902.193359 0)"/>
      <use xlink:href="#DejaVuSans-65" transform="translate(954.292969 0)"/>
      <use xlink:href="#DejaVuSans-73" transform="translate(1015.816406 0)"/>
     </g>
    </g>
   </g>
   <g id="line2d_34">
    <path d="M 46.965625 17.000707 
L 971.330625 17.000707 
" clip-path="url(#p414963813b)" style="fill: none; stroke-dasharray: 5.55,2.4; stroke-dashoffset: 0; stroke: #808080; stroke-width: 1.5"/>
   </g>
   <g id="patch_111">
    <path d="M 46.965625 345.798606 
L 46.965625 7.2 
" style="fill: none; stroke: #000000; stroke-width: 0.8; stroke-linejoin: miter; stroke-linecap: square"/>
   </g>
   <g id="patch_112">
    <path d="M 46.965625 345.798606 
L 971.330625 345.798606 
" style="fill: none; stroke: #000000; stroke-width: 0.8; stroke-linejoin: miter; stroke-linecap: square"/>
   </g>
   <g id="legend_1">
    <g id="patch_113">
     <path d="M 978.330625 88.590625 
L 1135.388438 88.590625 
Q 1137.388438 88.590625 1137.388438 86.590625 
L 1137.388438 14.2 
Q 1137.388438 12.2 1135.388438 12.2 
L 978.330625 12.2 
Q 976.330625 12.2 976.330625 14.2 
L 976.330625 86.590625 
Q 976.330625 88.590625 978.330625 88.590625 
z
" style="fill: #ffffff; opacity: 0.8; stroke: #cccccc; stroke-linejoin: miter"/>
    </g>
    <g id="line2d_35">
     <path d="M 980.330625 20.298437 
L 990.330625 20.298437 
L 1000.330625 20.298437 
" style="fill: none; stroke-dasharray: 5.55,2.4; stroke-dashoffset: 0; stroke: #808080; stroke-width: 1.5"/>
    </g>
    <g id="text_36">
     <!-- Targets presented per ISI -->
     <g transform="translate(1008.330625 23.798437) scale(0.1 -0.1)">
      <defs>
       <path id="DejaVuSans-54" d="M -19 4666 
L 3928 4666 
L 3928 4134 
L 2272 4134 
L 2272 0 
L 1638 0 
L 1638 4134 
L -19 4134 
L -19 4666 
z
" transform="scale(0.015625)"/>
       <path id="DejaVuSans-64" d="M 2906 2969 
L 2906 4863 
L 3481 4863 
L 3481 0 
L 2906 0 
L 2906 525 
Q 2725 213 2448 61 
Q 2172 -91 1784 -91 
Q 1150 -91 751 415 
Q 353 922 353 1747 
Q 353 2572 751 3078 
Q 1150 3584 1784 3584 
Q 2172 3584 2448 3432 
Q 2725 3281 2906 2969 
z
M 947 1747 
Q 947 1113 1208 752 
Q 1469 391 1925 391 
Q 2381 391 2643 752 
Q 2906 1113 2906 1747 
Q 2906 2381 2643 2742 
Q 2381 3103 1925 3103 
Q 1469 3103 1208 2742 
Q 947 2381 947 1747 
z
" transform="scale(0.015625)"/>
       <path id="DejaVuSans-49" d="M 628 4666 
L 1259 4666 
L 1259 0 
L 628 0 
L 628 4666 
z
" transform="scale(0.015625)"/>
       <path id="DejaVuSans-53" d="M 3425 4513 
L 3425 3897 
Q 3066 4069 2747 4153 
Q 2428 4238 2131 4238 
Q 1616 4238 1336 4038 
Q 1056 3838 1056 3469 
Q 1056 3159 1242 3001 
Q 1428 2844 1947 2747 
L 2328 2669 
Q 3034 2534 3370 2195 
Q 3706 1856 3706 1288 
Q 3706 609 3251 259 
Q 2797 -91 1919 -91 
Q 1588 -91 1214 -16 
Q 841 59 441 206 
L 441 856 
Q 825 641 1194 531 
Q 1563 422 1919 422 
Q 2459 422 2753 634 
Q 3047 847 3047 1241 
Q 3047 1584 2836 1778 
Q 2625 1972 2144 2069 
L 1759 2144 
Q 1053 2284 737 2584 
Q 422 2884 422 3419 
Q 422 4038 858 4394 
Q 1294 4750 2059 4750 
Q 2388 4750 2728 4690 
Q 3069 4631 3425 4513 
z
" transform="scale(0.015625)"/>
      </defs>
      <use xlink:href="#DejaVuSans-54"/>
      <use xlink:href="#DejaVuSans-61" transform="translate(44.583984 0)"/>
      <use xlink:href="#DejaVuSans-72" transform="translate(105.863281 0)"/>
      <use xlink:href="#DejaVuSans-67" transform="translate(145.226562 0)"/>
      <use xlink:href="#DejaVuSans-65" transform="translate(208.703125 0)"/>
      <use xlink:href="#DejaVuSans-74" transform="translate(270.226562 0)"/>
      <use xlink:href="#DejaVuSans-73" transform="translate(309.435547 0)"/>
      <use xlink:href="#DejaVuSans-20" transform="translate(361.535156 0)"/>
      <use xlink:href="#DejaVuSans-70" transform="translate(393.322266 0)"/>
      <use xlink:href="#DejaVuSans-72" transform="translate(456.798828 0)"/>
      <use xlink:href="#DejaVuSans-65" transform="translate(495.662109 0)"/>
      <use xlink:href="#DejaVuSans-73" transform="translate(557.185547 0)"/>
      <use xlink:href="#DejaVuSans-65" transform="translate(609.285156 0)"/>
      <use xlink:href="#DejaVuSans-6e" transform="translate(670.808594 0)"/>
      <use xlink:href="#DejaVuSans-74" transform="translate(734.1875 0)"/>
      <use xlink:href="#DejaVuSans-65" transform="translate(773.396484 0)"/>
      <use xlink:href="#DejaVuSans-64" transform="translate(834.919922 0)"/>
      <use xlink:href="#DejaVuSans-20" transform="translate(898.396484 0)"/>
      <use xlink:href="#DejaVuSans-70" transform="translate(930.183594 0)"/>
      <use xlink:href="#DejaVuSans-65" transform="translate(993.660156 0)"/>
      <use xlink:href="#DejaVuSans-72" transform="translate(1055.183594 0)"/>
      <use xlink:href="#DejaVuSans-20" transform="translate(1096.296875 0)"/>
      <use xlink:href="#DejaVuSans-49" transform="translate(1128.083984 0)"/>
      <use xlink:href="#DejaVuSans-53" transform="translate(1157.576172 0)"/>
      <use xlink:href="#DejaVuSans-49" transform="translate(1221.052734 0)"/>
     </g>
    </g>
    <g id="patch_114">
     <path d="M 980.330625 38.476562 
L 1000.330625 38.476562 
L 1000.330625 31.476562 
L 980.330625 31.476562 
z
" style="fill: #a9dca3"/>
    </g>
    <g id="text_37">
     <!-- 1.29 -->
     <g transform="translate(1008.330625 38.476562) scale(0.1 -0.1)">
      <defs>
       <path id="DejaVuSans-2e" d="M 684 794 
L 1344 794 
L 1344 0 
L 684 0 
L 684 794 
z
" transform="scale(0.015625)"/>
      </defs>
      <use xlink:href="#DejaVuSans-31"/>
      <use xlink:href="#DejaVuSans-2e" transform="translate(63.623047 0)"/>
      <use xlink:href="#DejaVuSans-32" transform="translate(95.410156 0)"/>
      <use xlink:href="#DejaVuSans-39" transform="translate(159.033203 0)"/>
     </g>
    </g>
    <g id="patch_115">
     <path d="M 980.330625 53.154687 
L 1000.330625 53.154687 
L 1000.330625 46.154687 
L 980.330625 46.154687 
z
" style="fill: #66bd6f"/>
    </g>
    <g id="text_38">
     <!-- 1.44 -->
     <g transform="translate(1008.330625 53.154687) scale(0.1 -0.1)">
      <use xlink:href="#DejaVuSans-31"/>
      <use xlink:href="#DejaVuSans-2e" transform="translate(63.623047 0)"/>
      <use xlink:href="#DejaVuSans-34" transform="translate(95.410156 0)"/>
      <use xlink:href="#DejaVuSans-34" transform="translate(159.033203 0)"/>
     </g>
    </g>
    <g id="patch_116">
     <path d="M 980.330625 67.832812 
L 1000.330625 67.832812 
L 1000.330625 60.832812 
L 980.330625 60.832812 
z
" style="fill: #2b934b"/>
    </g>
    <g id="text_39">
     <!-- 1.57 -->
     <g transform="translate(1008.330625 67.832812) scale(0.1 -0.1)">
      <use xlink:href="#DejaVuSans-31"/>
      <use xlink:href="#DejaVuSans-2e" transform="translate(63.623047 0)"/>
      <use xlink:href="#DejaVuSans-35" transform="translate(95.410156 0)"/>
      <use xlink:href="#DejaVuSans-37" transform="translate(159.033203 0)"/>
     </g>
    </g>
    <g id="patch_117">
     <path d="M 980.330625 82.510937 
L 1000.330625 82.510937 
L 1000.330625 75.510937 
L 980.330625 75.510937 
z
" style="fill: #006428"/>
    </g>
    <g id="text_40">
     <!-- 1.71 -->
     <g transform="translate(1008.330625 82.510937) scale(0.1 -0.1)">
      <use xlink:href="#DejaVuSans-31"/>
      <use xlink:href="#DejaVuSans-2e" transform="translate(63.623047 0)"/>
      <use xlink:href="#DejaVuSans-37" transform="translate(95.410156 0)"/>
      <use xlink:href="#DejaVuSans-31" transform="translate(159.033203 0)"/>
     </g>
    </g>
   </g>
  </g>
 </g>
 <defs>
  <clipPath id="p414963813b">
   <rect x="46.965625" y="7.2" width="924.365" height="338.598606"/>
  </clipPath>
 </defs>
 <defs>
  <pattern id="he24e016db0" patternUnits="userSpaceOnUse" x="0" y="0" width="72" height="72">
   <rect x="0" y="0" width="73" height="73" fill="#a9dca3"/>
   <path d="M -36 36 
L 36 -36 
M -30 42 
L 42 -30 
M -24 48 
L 48 -24 
M -18 54 
L 54 -18 
M -12 60 
L 60 -12 
M -6 66 
L 66 -6 
M 0 72 
L 72 0 
M 6 78 
L 78 6 
M 12 84 
L 84 12 
M 18 90 
L 90 18 
M 24 96 
L 96 24 
M 30 102 
L 102 30 
M 36 108 
L 108 36 
" style="fill: #000000; stroke: #000000; stroke-width: 1.0; stroke-linecap: butt; stroke-linejoin: miter"/>
  </pattern>
  <pattern id="h37db0f6472" patternUnits="userSpaceOnUse" x="0" y="0" width="72" height="72">
   <rect x="0" y="0" width="73" height="73" fill="#66bd6f"/>
   <path d="M -36 36 
L 36 -36 
M -30 42 
L 42 -30 
M -24 48 
L 48 -24 
M -18 54 
L 54 -18 
M -12 60 
L 60 -12 
M -6 66 
L 66 -6 
M 0 72 
L 72 0 
M 6 78 
L 78 6 
M 12 84 
L 84 12 
M 18 90 
L 90 18 
M 24 96 
L 96 24 
M 30 102 
L 102 30 
M 36 108 
L 108 36 
" style="fill: #000000; stroke: #000000; stroke-width: 1.0; stroke-linecap: butt; stroke-linejoin: miter"/>
  </pattern>
  <pattern id="h295b203ec3" patternUnits="userSpaceOnUse" x="0" y="0" width="72" height="72">
   <rect x="0" y="0" width="73" height="73" fill="#2b934b"/>
   <path d="M -36 36 
L 36 -36 
M -30 42 
L 42 -30 
M -24 48 
L 48 -24 
M -18 54 
L 54 -18 
M -12 60 
L 60 -12 
M -6 66 
L 66 -6 
M 0 72 
L 72 0 
M 6 78 
L 78 6 
M 12 84 
L 84 12 
M 18 90 
L 90 18 
M 24 96 
L 96 24 
M 30 102 
L 102 30 
M 36 108 
L 108 36 
" style="fill: #000000; stroke: #000000; stroke-width: 1.0; stroke-linecap: butt; stroke-linejoin: miter"/>
  </pattern>
  <pattern id="h12fd9d1645" patternUnits="userSpaceOnUse" x="0" y="0" width="72" height="72">
   <rect x="0" y="0" width="73" height="73" fill="#006428"/>
   <path d="M -36 36 
L 36 -36 
M -30 42 
L 42 -30 
M -24 48 
L 48 -24 
M -18 54 
L 54 -18 
M -12 60 
L 60 -12 
M -6 66 
L 66 -6 
M 0 72 
L 72 0 
M 6 78 
L 78 6 
M 12 84 
L 84 12 
M 18 90 
L 90 18 
M 24 96 
L 96 24 
M 30 102 
L 102 30 
M 36 108 
L 108 36 
" style="fill: #000000; stroke: #000000; stroke-width: 1.0; stroke-linecap: butt; stroke-linejoin: miter"/>
  </pattern>
 </defs>
</svg>
